<svg xmlns="http://www.w3.org/2000/svg" width="400" height="497" viewBox="0 0 400 497">
  <g id="Grupo_10" data-name="Grupo 10" transform="translate(-3771 -2727)">
    <g id="Grupo_7" data-name="Grupo 7">
      <path id="Caminho_214" data-name="Caminho 214" d="M199.987,490c90.445,0,163.766-16.253,163.766-36.3s-73.321-36.3-163.766-36.3S36.221,433.648,36.221,453.7,109.541,490,199.987,490Z" transform="translate(3768 2734)" opacity="0.11"/>
      <path id="Caminho_211" data-name="Caminho 211" d="M193.444,309.642c-22.09,0-44.122-10.328-62.634-29.531-17.777-18.455-30.523-43.539-34.094-67.132-4.791-31.681,5.637-65.021,27.895-89.188a102.155,102.155,0,0,1,35.217-25.019,95.44,95.44,0,0,1,44.27-7.449c30.02,2.033,57.049,16.415,76.111,40.511a111.125,111.125,0,0,1,22.7,86.974,97.412,97.412,0,0,1-40.544,64.337,113.679,113.679,0,0,1-63.216,26.278C197.247,309.565,195.349,309.642,193.444,309.642ZM197.4,96.571a89.688,89.688,0,0,0-35.411,7.243,96.629,96.629,0,0,0-33.319,23.715c-21.141,22.954-31.046,54.6-26.474,84.651,3.4,22.489,15.6,46.475,32.621,64.123,18.92,19.63,41.617,29.448,63.926,27.634a108.058,108.058,0,0,0,60.187-25.071h0c10.157-7.04,17.26-15.434,23.855-25.883a98.144,98.144,0,0,0,13.237-35.54c4.836-29.047-1.526-58.763-20.09-82.233-18.08-22.864-43.722-36.509-72.178-38.439Q200.548,96.57,197.4,96.571Z" transform="translate(3772 2726)" fill="#0c8aa1"/>
      <path id="Caminho_212" data-name="Caminho 212" d="M397.214,169.725c0-.723-.045-1.44-.078-2.156s-.058-1.253-.09-1.872c0-.478-.052-.949-.091-1.42,0-.362-.045-.723-.071-1.078-.045-.691-.1-1.382-.161-2.072s-.129-1.427-.2-2.137-.136-1.336-.213-2-.142-1.214-.22-1.82-.155-1.233-.245-1.853-.149-1.091-.233-1.633l-.1-.645c-.1-.594-.188-1.188-.291-1.782s-.174-1.059-.271-1.588-.2-1.136-.31-1.7c-.078-.426-.162-.845-.246-1.291l-.232-1.155-.136-.646c-.109-.548-.226-1.1-.355-1.646a1.326,1.326,0,0,0,0-.155c-.1-.451-.2-.91-.31-1.361-.129-.569-.258-1.13-.4-1.692s-.233-.955-.355-1.426-.226-.91-.349-1.356a.511.511,0,0,0-.032-.116c-.168-.645-.336-1.291-.517-1.936s-.336-1.22-.516-1.821c-.246-.845-.5-1.691-.756-2.53l-.426-1.369q-.645-2.033-1.35-4.034c-.645-1.872-1.336-3.724-2.053-5.571q-.787-1.993-1.608-3.956t-1.633-3.744q-.834-1.872-1.724-3.705c-.588-1.227-1.189-2.447-1.815-3.66-.31-.607-.646-1.214-.943-1.814s-.645-1.207-.962-1.8-.645-1.2-.988-1.794-.645-1.188-1.007-1.782-.646-1.181-1.027-1.769-.7-1.175-1.052-1.756-.646-1.071-.982-1.6l-.155-.252c-.316-.51-.645-1.02-.962-1.523l-.11-.174c-.355-.555-.71-1.1-1.071-1.653s-.756-1.143-1.137-1.711-.762-1.13-1.156-1.7L367.1,81.789c-.381-.542-.768-1.078-1.162-1.62l-.078-.116L364.7,78.464q-1.227-1.652-2.493-3.279c-.426-.542-.846-1.084-1.291-1.62q-1.291-1.62-2.583-3.227-1.938-2.382-4.049-4.686-2.744-3.079-5.656-6.048L344.162,55.3l-1.511-1.426q-2.984-2.8-6.1-5.461L336,47.939c-.91-.768-1.827-1.536-2.757-2.292l-1.5-1.22-.213-.168-1.447-1.149-.155-.116-1.607-1.239-1.666-1.291-1.686-1.246c-.562-.413-1.13-.82-1.7-1.226s-1.156-.775-1.711-1.188-1.149-.794-1.724-1.188l-1.744-1.175-1.756-1.155-1.679-1.078-2.118-1.291-1.556-.949-1.937-1.175-1.692-.981c-.646-.349-1.22-.7-1.84-1.039s-1.227-.684-1.847-1.02l-1.859-1c-1.88-1-3.778-1.937-5.689-2.9-1.259-.607-2.525-1.213-3.8-1.8q-5.889-2.711-11.972-5.041l-1.782-.646-1.582-.575q-1.794-.645-3.59-1.252l-1.55-.516c-.51-.168-1.02-.336-1.53-.491-.646-.2-1.246-.4-1.873-.587s-1.362-.42-2.053-.646l-2.066-.6h-.032L262.7,9.254l-1.136-.3c-.465-.129-.937-.252-1.4-.368l-1.937-.491c-.781-.194-1.569-.381-2.35-.562-.646-.155-1.33-.31-2-.452S252.632,6.8,252,6.672q-4.2-.852-8.446-1.562l-1.207-.187c-.414-.071-.827-.136-1.247-.194-.645-.1-1.323-.194-1.988-.284l-1.027-.136q-1.715-.232-3.442-.426c-.917-.1-1.84-.2-2.763-.284l-1.731-.161c-.684-.065-1.375-.116-2.06-.168L225.9,3.116,223.923,3H223.7c-3.138-.161-6.3-.245-9.473-.245-109.087,0-233.748,87.691-208.152,227.8,16.976,92.906,114.336,162.167,193.443,223.141l3.228-2.363,1.776-1.291,3.306-2.42,4.139-3.053c1.382-1.014,2.751-2.034,4.126-3.06q6.419-4.783,12.734-9.618c1.136-.871,2.266-1.736,3.4-2.582q2.583-1.975,5.1-3.97l3.068-2.407,2.918-2.311q1.686-1.336,3.352-2.685,1.239-.994,2.473-2l2.944-2.395.413-.336,3.2-2.653,1.1-.91,3.035-2.537.31-.265q1.846-1.548,3.68-3.117c1.259-1.072,2.518-2.15,3.765-3.228l.1-.084,3.229-2.84,1.039-.91q1.446-1.291,2.88-2.582l.549-.491c.988-.877,1.969-1.768,2.951-2.659.374-.336.749-.645,1.123-1.026.724-.646,1.447-1.291,2.163-1.976.646-.561,1.24-1.136,1.854-1.717s1.168-1.078,1.75-1.626l1.607-1.511c.788-.742,1.576-1.484,2.357-2.24l.917-.877,2.841-2.744.646-.645,2.195-2.156q1.067-1.045,2.118-2.111c.433-.426.859-.859,1.292-1.291.607-.607,1.2-1.214,1.788-1.82.7-.7,1.389-1.407,2.06-2.117.381-.381.749-.762,1.111-1.143q1.123-1.162,2.221-2.324c.433-.445.859-.9,1.292-1.349q1-1.051,1.982-2.117.709-.756,1.395-1.511c.716-.774,1.433-1.555,2.137-2.336.342-.368.678-.743,1.007-1.117q.988-1.071,1.937-2.162.873-.969,1.724-1.937c.369-.413.73-.82,1.079-1.233q1.292-1.472,2.583-2.963c1.052-1.226,2.092-2.452,3.118-3.692l1.544-1.859.762-.929q.6-.723,1.181-1.453,1.744-2.15,3.448-4.312c.375-.471.749-.949,1.118-1.426q2.744-3.512,5.391-7.1.727-.967,1.434-1.936l1.42-1.937q.708-.967,1.408-1.936c.465-.646.936-1.291,1.395-1.975s.923-1.291,1.381-1.982c.988-1.427,1.938-2.866,2.926-4.3.381-.575.762-1.143,1.136-1.717s.878-1.33,1.291-1.995l.046-.071c.432-.646.859-1.33,1.291-2s.872-1.369,1.292-2.053.858-1.368,1.291-2.059.852-1.381,1.291-2.072l1.292-2.085q1.88-3.137,3.687-6.319.613-1.065,1.2-2.13,3.113-5.565,6.018-11.29c.284-.575.575-1.149.865-1.724.614-1.233,1.227-2.478,1.828-3.724.258-.529.51-1.052.755-1.582s.446-.936.646-1.407q1.589-3.369,3.1-6.8c.336-.762.646-1.53,1-2.3s.646-1.472.949-2.207q1.569-3.732,3.054-7.527.389-.962.756-1.936c.3-.788.607-1.582.9-2.376q4.436-11.818,8.02-24.348c.245-.852.484-1.71.723-2.582q1.776-6.455,3.319-13.058A152.647,152.647,0,0,0,397.214,169.725Zm-97.006,48.618a94.29,94.29,0,0,1-39.518,62.613,111.175,111.175,0,0,1-61.756,25.717c-50.566,4.105-92.6-48.664-99.5-94.081-9.3-61.438,39.976-122.909,104.457-118.545a101.575,101.575,0,0,1,33.08,7.881C281.082,120.719,308.37,169.337,300.208,218.343Z" transform="translate(3771 2727)" fill="#f4f4ff"/>
      <path id="Caminho_213" data-name="Caminho 213" d="M393.738,206.673q-1.537,6.628-3.319,13.058c-.239.859-.478,1.717-.723,2.582q-3.564,12.522-8.02,24.335c-.3.794-.6,1.588-.9,2.376q-.367.974-.755,1.936-1.479,3.8-3.055,7.527c-.316.735-.645,1.478-.949,2.207s-.646,1.536-1,2.3q-1.51,3.428-3.1,6.8c-.22.471-.439.943-.646,1.407s-.5,1.053-.755,1.582c-.6,1.246-1.214,2.491-1.828,3.724-.29.575-.581,1.149-.865,1.724q-2.906,5.725-6.018,11.29-.588,1.065-1.2,2.13-1.808,3.182-3.687,6.319l-1.292,2.085c-.419.691-.845,1.381-1.291,2.072s-.852,1.375-1.291,2.059-.866,1.369-1.292,2.053-.852,1.336-1.291,2l-.046.071c-.432.645-.871,1.33-1.291,1.995s-.755,1.142-1.136,1.717q-1.445,2.158-2.925,4.3c-.459.645-.917,1.323-1.382,1.982s-.924,1.291-1.395,1.975-.936,1.291-1.408,1.936l-1.42,1.937q-.708.967-1.434,1.936-2.648,3.57-5.391,7.1c-.369.477-.743.955-1.118,1.426q-1.7,2.169-3.448,4.312-.581.73-1.181,1.453l-.762.929-1.544,1.859c-1.026,1.24-2.066,2.466-3.118,3.692q-1.291,1.491-2.583,2.963c-.349.413-.71.82-1.079,1.233q-.852.969-1.724,1.937c-.581.645-1.291,1.446-1.937,2.162-.329.374-.645.749-1.007,1.117-.7.781-1.421,1.562-2.137,2.336q-.686.756-1.395,1.511-.988,1.065-1.982,2.117c-.42.452-.846.9-1.292,1.349q-1.1,1.162-2.221,2.324c-.362.381-.73.762-1.111,1.142-.645.711-1.362,1.414-2.06,2.118q-.88.909-1.788,1.82c-.426.432-.853.865-1.292,1.291q-1.059,1.065-2.118,2.111l-2.195,2.156-.646.645-2.841,2.744-.846.916c-.781.755-1.569,1.5-2.357,2.24l-1.607,1.511c-.582.548-1.163,1.09-1.75,1.626s-1.234,1.156-1.854,1.717c-.716.646-1.439,1.33-2.163,1.975-.374.355-.749.691-1.123,1.027-.982.891-1.937,1.781-2.951,2.659l-.549.491q-1.434,1.29-2.88,2.582l-1.039.91-3.229,2.84-.1.084c-1.247,1.084-2.506,2.162-3.765,3.227s-2.447,2.085-3.68,3.118l-.31.265-3.035,2.537-1.111.884-3.177,2.621-.413.335-2.944,2.395q-1.227,1.006-2.474,2-1.665,1.342-3.351,2.685l-2.918,2.311-3.068,2.408q-2.537,1.995-5.1,3.97c-1.13.878-2.26,1.743-3.4,2.582q-6.315,4.84-12.734,9.618c-1.375,1.026-2.744,2.046-4.126,3.059l-4.139,3.054-3.306,2.42-1.776,1.291c5.024-26.368,11.623-52.466,17.163-78.75q7.749-36.858,12.469-74.232A108.392,108.392,0,0,0,260.7,280.956a94.3,94.3,0,0,0,39.518-62.613c8.162-49.006-19.126-97.631-63.28-116.415A945.34,945.34,0,0,0,223.7,2.987h.22L225.9,3.1l2.189.155c.685.052,1.376.1,2.06.168l1.731.161c.923.084,1.846.181,2.763.284q1.725.194,3.442.426l1.027.136c.645.09,1.33.181,1.989.284.419.058.833.123,1.246.194l1.207.187q4.242.684,8.44,1.569c.645.129,1.259.265,1.885.407s1.33.3,1.995.452c.782.181,1.57.368,2.351.562l1.937.491c.465.116.936.239,1.4.368l1.137.3,1.588.439h.032l2.047.594q1.039.3,2.054.646c.645.187,1.252.387,1.872.587.51.155,1.021.323,1.531.49l1.549.516q1.8.6,3.591,1.252l1.582.574,1.782.646q6.082,2.324,11.971,5.041c1.292.587,2.538,1.194,3.8,1.8,1.937.943,3.81,1.937,5.689,2.9l1.859,1c.646.336,1.234.646,1.847,1.02s1.227.691,1.84,1.039l1.66.962,1.937,1.175,1.6.962,2.118,1.291,1.679,1.078,1.756,1.155,1.744,1.175c.574.394,1.155.787,1.724,1.188s1.149.8,1.717,1.207,1.137.813,1.7,1.226l1.686,1.246,1.666,1.291,1.608,1.239.154.116,1.447,1.149.213.168,1.5,1.22c.93.755,1.847,1.523,2.757,2.292l.549.471q3.107,2.672,6.1,5.461L344.16,55.3q2.233,2.137,4.41,4.351,2.9,2.963,5.657,6.048c1.375,1.543,2.731,3.1,4.048,4.686q1.324,1.588,2.583,3.227c.433.536.852,1.078,1.292,1.62q1.291,1.627,2.492,3.279l1.169,1.588.077.116c.394.542.782,1.078,1.163,1.62l1.175,1.685c.394.568.775,1.13,1.156,1.7s.762,1.136,1.136,1.711.717,1.1,1.072,1.652l.11.174c.323.5.645,1.013.962,1.523l.155.252c.329.529.646,1.065.981,1.6s.7,1.168,1.053,1.756.691,1.175,1.026,1.769.678,1.188,1.008,1.782.646,1.194.988,1.794.645,1.2.962,1.8.646,1.207.943,1.814q.928,1.819,1.814,3.66t1.724,3.705q.84,1.858,1.634,3.744t1.608,3.957q1.071,2.761,2.053,5.57.7,2,1.349,4.035l.427,1.368c.258.839.51,1.685.755,2.53.181.6.349,1.207.517,1.821s.348,1.291.516,1.936a.513.513,0,0,1,.033.116c.12.431.236.882.348,1.356s.246.949.355,1.426.272,1.124.4,1.692c.11.451.213.91.31,1.362a1.34,1.34,0,0,1,0,.155c.129.548.245,1.1.355,1.646l.135.645.233,1.155c.084.426.168.846.245,1.291.11.562.213,1.13.31,1.7s.187,1.059.271,1.588.194,1.188.291,1.782l.1.645c.084.542.161,1.091.232,1.633s.168,1.24.246,1.853.148,1.213.219,1.82.149,1.336.213,2,.142,1.427.2,2.137.117,1.381.162,2.072c0,.355.052.716.071,1.078.039.471.064.942.09,1.42.033.645.065,1.246.091,1.872s.058,1.433.077,2.156A152.585,152.585,0,0,1,393.738,206.673Z" transform="translate(3771 2727)" fill="#ddf"/>
      <g id="Grupo_4" data-name="Grupo 4" transform="translate(-289.905 316.365)">
        <path id="Caminho_139" data-name="Caminho 139" d="M354.419,245.819c3.765-7.791,16.09-12.831,25.235-9.875-.829,1.107-1.625,2.154-2.4,3.225a15.06,15.06,0,0,1-8.871,5.76C363.91,246.053,359.413,245.8,354.419,245.819Z" transform="translate(3853.354 2286.486)" fill="#12afcb" fill-rule="evenodd"/>
        <path id="Caminho_127" data-name="Caminho 127" d="M432.056,428.795c2.174-3.13,5.008-5.173,9.112-4.832a18.234,18.234,0,0,0,2.177-.074c-.083-3.608-3.05-16.13-5.591-23.737-1.051-.238-2.215-.515-3.371-.776A20.632,20.632,0,0,1,426.9,396.3,9.782,9.782,0,0,1,422.364,388c-.051-4.349.842-8.35,4.146-11.436a38.56,38.56,0,0,1,4.6-3.212,31.506,31.506,0,0,0-2.924-11.378c-3.628-.3-7.036.464-10.6.625-.75,1.14-1.465,2.261-2.226,3.349a12.684,12.684,0,0,1-4.146,4.063,8.783,8.783,0,0,1-10.178-.659,12.59,12.59,0,0,1-4.531-6.011c-.273-.831-.6-1.652-.893-2.45-3.37-1.2-6.608-2.348-9.977-3.549-1.6,2.187-1.959,4.728-3.4,6.926,1.041.665,1.79,1.113,2.507,1.616a14.913,14.913,0,0,1,5.831,8.3c1.906,6.509-2.518,13.953-9.166,15.809a12.252,12.252,0,0,1-7.13-.426,34.989,34.989,0,0,1-3.484-1.493c-2.454,3.921-3.557,8.27-5.169,12.385-1.627,4.169-3.123,8.393-4.749,12.8a8.432,8.432,0,0,0,1.619.677c5.6,1.013,7.973,5.013,9.232,9.872a8.838,8.838,0,0,1-3.066,9.675,15.234,15.234,0,0,1-3.036,2.319c-1.814,1.007,19.534,9.133,37.547,8.626,6.614-.78,25.573-1.668,28.89-5.455C434.346,436.369,431.483,429.618,432.056,428.795Zm-43.1-15.692a13.89,13.89,0,0,1,7.608-13.267,10.453,10.453,0,0,1,12.476,1.961c4.587,4.534,4.508,13.7,1.87,17.538-1.682,2.443-3.642,4.4-6.81,4.676a14.527,14.527,0,0,1-12.3-4.513A10.2,10.2,0,0,1,388.957,413.1Z" transform="translate(3853.696 2271.566)" fill="#3cdcc1" fill-rule="evenodd"/>
        <path id="Caminho_128" data-name="Caminho 128" d="M425.505,275.674c-6.393-2.147-12.583-5.526-20.007-3.7-.666,1.762-1.249,3.442-1.929,5.083-1.036,2.471-2.054,4.966-3.247,7.372a17.47,17.47,0,0,1-5.757,6.79c-1.36.937-2.729,1.891-4.025,2.9-9.424,7.319-24.94,5.81-33.956-2.238a53.221,53.221,0,0,1-4.2-4.687c-1.121.2-.779,1.054-.729,1.712a53.732,53.732,0,0,0,5.644,20.557c4.115,8,8.589,15.714,14.958,22.264A52.1,52.1,0,0,0,406.691,347.8a88.917,88.917,0,0,0,43.72-7.967,118.409,118.409,0,0,0,26.935-16.451,67.747,67.747,0,0,0,20.863-29.812,11.573,11.573,0,0,0,.32-1.81l-9.121-2.331a23.685,23.685,0,0,0-1.1,2.151c-3.96,9.961-11.2,16.815-20.806,21.458-21.481,7.772-38.676-6.377-41.171-22.4-.692-4.446-1.3-8.842-.6-13.332A8.579,8.579,0,0,0,425.505,275.674Z" transform="translate(3853.701 2282.048)" fill="#effeff" fill-rule="evenodd"/>
        <path id="Caminho_129" data-name="Caminho 129" d="M350.65,250.331c-3.854,4.938-3.534,10.274-2.413,15.832,2.091,10.315,8.767,17.018,17.625,21.964a16.727,16.727,0,0,0,8.675,2.148c5.472-.145,10.423-1.556,14.63-5.135a10.118,10.118,0,0,1,1.4-1.13c3.762-2.121,5.741-5.616,7.3-9.365a58.209,58.209,0,0,0,3.809-12.351,30.227,30.227,0,0,0-.7-13.241,14.126,14.126,0,0,0-4.5-7.055,26.143,26.143,0,0,0-9.515-5.008,3.269,3.269,0,0,0-3.693.973,40.339,40.339,0,0,0-2.966,3.368c-4.332,6.224-10.708,8.46-17.935,8.88C358.595,250.431,354.818,250.305,350.65,250.331Zm22.365,11.453a6.95,6.95,0,0,1,1.249-4.119c1.587-2.457,3.9-3.09,6.644-2.637,2.184.351,3.385,1.86,3.851,4.839a9.424,9.424,0,0,1,.082,2.645,5.9,5.9,0,0,1-6.293,5.134C375.488,267.552,373.244,265.362,373.015,261.784Z" transform="translate(3854.199 2286.279)" fill="#ffeff4" fill-rule="evenodd"/>
        <path id="Caminho_130" data-name="Caminho 130" d="M464.8,251.376a9.586,9.586,0,0,0-4.573.693c-9.408,2.9-20.612,15.12-19.683,28.43a75.5,75.5,0,0,0,1,7.968c1.989,11.012,13.219,22.269,29.5,19.685A25.292,25.292,0,0,0,481.5,304.06a41.567,41.567,0,0,0,11.073-11.114,13.269,13.269,0,0,0,2.737-8.108c-2.219-1.289-4.559-2.607-6.867-3.988a51.984,51.984,0,0,1-18.822-18.967c-1.335-2.32-2.368-4.817-3.5-7.249C465.628,253.585,465.242,252.479,464.8,251.376Zm-9.923,27.794c-.121-3.226,3.208-6.781,6.426-6.867,3.536-.09,7.148,3.429,7.357,7.173.186,3.362-2.836,6.141-6.811,6.247A6.476,6.476,0,0,1,454.873,279.17Z" transform="translate(3842.851 2284.507)" fill="#ffeff4" fill-rule="evenodd"/>
        <path id="Caminho_150" data-name="Caminho 150" d="M350.66,284.766c-.263-7.024,4.428-13.529,11.73-13.6,6.931-.07,12.616,6.193,14.141,12.614a14.116,14.116,0,0,1-3.252,12.99c-3.773,5.264-11.274,5.286-16.071,1.143C353.129,295.058,350.852,289.664,350.66,284.766Z" transform="translate(3853.813 2282.083)" fill="#bef5ff" fill-rule="evenodd"/>
        <path id="Caminho_151" data-name="Caminho 151" d="M465.935,302.322c3.68-7.527,12.077-8.894,19.084-5.337,6.55,3.322,9.66,10.733,8.556,17.817-.988,6.289-6.646,9.723-12.359,10.58a14.24,14.24,0,0,1-12.1-4.486,12.615,12.615,0,0,1-1.307-1.782C464.311,314.392,463.4,307.506,465.935,302.322Z" transform="translate(3839.921 2279.161)" fill="#bef5ff" fill-rule="evenodd"/>
        <path id="Caminho_131" data-name="Caminho 131" d="M458.412,230.637c-1.434-.346-2.745-.652-4.059-.976a20.723,20.723,0,0,1-13.58-10.325c-2.767-4.915-4.035-10.233-4.919-15.7-.227-1.433-.512-2.846-.751-4.2-1.6-.113-1.6,1.076-1.95,1.75a75.905,75.905,0,0,1-8.368,12.74,47.231,47.231,0,0,1-19.429,14.285c-1.51.622-3.028,1.234-5.005,2.038,1.187.885,1.934,1.516,2.755,2.041a19.888,19.888,0,0,1,9.087,13.828,40.069,40.069,0,0,1,.367,11.648c3.519.6,6.953,1,10.281,1.783,3.355.795,6.611,1.982,10.088,3.059,5.266-11.173,12.963-19.53,25.859-22.221C458.659,237.243,458.544,234.174,458.412,230.637Z" transform="translate(3847.749 2290.837)" fill="#ffeff4" fill-rule="evenodd"/>
        <path id="Caminho_132" data-name="Caminho 132" d="M505,324.089a17.249,17.249,0,0,0,7.087.888,37.467,37.467,0,0,0,11.163-1.792,20.434,20.434,0,0,0,8.781-5.384c3.363-3.574,5.2-7.672,3.892-12.667a45.665,45.665,0,0,0-1.587-6.027,16.2,16.2,0,0,0-2.965-4.429c-1.779-1.974-4.192-2.256-6.694-1.659a3.607,3.607,0,0,0-1.824,1.18,11.5,11.5,0,0,0-1.824,3.039,75.784,75.784,0,0,1-15.106,25.3A13.269,13.269,0,0,0,505,324.089Z" transform="translate(3834.978 2279.45)" fill="#ffeff4" fill-rule="evenodd"/>
        <path id="Caminho_133" data-name="Caminho 133" d="M484.232,450.695c1.564-.545,1.709-1.74,1.984-2.905.6-2.541,1.294-3.392,2.452-3.061,1.959.551,1.65,2.2,1.739,3.668a34.673,34.673,0,0,0,.373,4,7.219,7.219,0,0,0,.931,1.849c1.865.338,2.728-.745,3.373-1.933.637-1.17.939-2.518,1.593-3.68a2.415,2.415,0,0,1,1.705-1.158,2.689,2.689,0,0,1,1.805,1.061c.543.683.675,1.694,1.226,2.368a17.22,17.22,0,0,0,2.875,2.73,2.134,2.134,0,0,0,1.7.04,1.365,1.365,0,0,0,.652-1.9c-.759-2.089-1.62-4.15-2.506-6.192-.471-1.093-1.172-2.091-1.567-3.205a2.018,2.018,0,0,1,2.248-2.551,25.154,25.154,0,0,1,3.815,1.367c1.531.646,2.975,1.486,4.545,2.018a14.6,14.6,0,0,0,3.292.292,10.561,10.561,0,0,0-4.407-6.381,6.874,6.874,0,0,0-2.535-.764c-.877-.184-1.806-.158-2.667-.385A1.743,1.743,0,0,1,505.414,434a1.92,1.92,0,0,1,1.823-1.7,21.869,21.869,0,0,1,2.717-.1c3.873-.093,6.509-2.12,8.381-5.282.793-1.349.09-2.669-1.515-2.973a2.477,2.477,0,0,0-.45-.07c-7.731-.126-15.005,1.32-21.56,5.673a21.819,21.819,0,0,0-7.338,8.282c-1.254,2.383-2.491,4.766-3.737,7.148a5.777,5.777,0,0,0-.38,4.348A5.062,5.062,0,0,0,484.232,450.695Z" transform="translate(3837.65 2263.449)" fill="#ffeff4" fill-rule="evenodd"/>
        <path id="Caminho_134" data-name="Caminho 134" d="M344.381,288.19c-.4-4.43-.749-8.732-1.194-13.022a13.139,13.139,0,0,0-.828-3.017,29.881,29.881,0,0,1-.318-19.316,10.093,10.093,0,0,0,.515-3.024c-.027-3.029-1.62-4.619-4.692-4.79a8.821,8.821,0,0,0-6.657,2.326,13.962,13.962,0,0,0-4.951,11.552,27.533,27.533,0,0,0,3.537,12.822,76.17,76.17,0,0,0,12.5,15.836,5.911,5.911,0,0,0,1.114.766C343.491,288.372,343.67,288.287,344.381,288.19Z" transform="translate(3856.793 2285.276)" fill="#ffeff4" fill-rule="evenodd"/>
        <path id="Caminho_135" data-name="Caminho 135" d="M494.41,332.463c2.535.522,4.459.866,6.354,1.306,1.92.457,3.854,1.054,4.962,2.817,3.277,5.182,6.6,10.354,9.647,15.666a21.261,21.261,0,0,1,2.394,6.682c.9,4.873-1.158,7.025-6.226,6.694a12.445,12.445,0,0,1-4.316-1.192,43.7,43.7,0,0,1-4.644-2.786c-1.023-.638-1.965-1.411-3.019-1.979-2.127-1.153-3.532-.492-3.921,1.788-.2,1.18-.168,2.4-.479,3.543a35.545,35.545,0,0,1-2.114,6.331c-2.32,4.751-4.03,3.46-6.342,1.073a30.284,30.284,0,0,0-3.623-3.371,3.572,3.572,0,0,0-5.238.639,31.842,31.842,0,0,0-2.313,3.309c-.651,1.005-1.205,2.069-1.883,3.058a5.561,5.561,0,0,1-5.9,2.5c-4.215-.771-7.745-2.583-9.435-6.782a30.154,30.154,0,0,1-1.245-3.826c-.871-3.466-1.69-6.96-2.484-10.447a14.038,14.038,0,0,1-.106-2.358C469.205,349.822,482.771,342.721,494.41,332.463Z" transform="translate(3841.143 2274.603)" fill="#12afcb" fill-rule="evenodd"/>
        <path id="Caminho_136" data-name="Caminho 136" d="M323.94,327.118a10.591,10.591,0,0,1,.975-3.849,16.7,16.7,0,0,1,3-4.42c3.747-3.666,7.629-7.207,11.572-10.681a16.32,16.32,0,0,1,6.122-3.486c1.119,2.745,2,5.126,3.043,7.422,4.541,9.954,9.974,19.343,17.78,27.255,2.722,2.763,2.822,4.287.842,7.522a20.9,20.9,0,0,1-11.868,9.2c-5.21,1.638-8.848-.083-10.809-5.054-.932-2.344-2.4-3.261-4.834-3.056a14.14,14.14,0,0,1-2.265,0c-3.342-.256-4.665-1.987-3.755-5.069a18.718,18.718,0,0,1,1.489-3.242c.555-1.054,1.284-2.028,1.788-3.1a2.193,2.193,0,0,0-1.87-3.255c-1.054-.09-2.117.062-3.17-.011a19.286,19.286,0,0,1-4.024-.509Q323.584,331.517,323.94,327.118Z" transform="translate(3857.076 2277.993)" fill="#12afcb" fill-rule="evenodd"/>
        <path id="Caminho_137" data-name="Caminho 137" d="M355.547,230a31.6,31.6,0,0,1-2.648,1.732,78.558,78.558,0,0,1,4.723-14.175c4.836-10.7,12.19-19.491,20.869-27.363a58.09,58.09,0,0,1,19.67-11.759,79.074,79.074,0,0,1,18.126-3.973,46.183,46.183,0,0,1,17.138,1.118,192.444,192.444,0,0,1,19.061,5.786c8.317,3.169,15.743,7.587,21.735,14.186,1.41,1.553,2.711,3.406,4.487,4.389,2.946,1.635,4.66,4.167,6.411,6.758a117.412,117.412,0,0,1,10.2,18.926,83.746,83.746,0,0,1,7.088,37.034,40.759,40.759,0,0,1-2.06,12.147,15.468,15.468,0,0,1-10.415-2.143c-.775-4.833-1.454-9.392-2.253-13.938a22.406,22.406,0,0,0-7.962-14.14,32.71,32.71,0,0,0-18.566-7.55L458.1,236.8c-1.373-4-1.414-5.07-.357-9.3.674-2.708.233-3.456-2.527-4.02-1.927-.4-3.883-.644-5.794-1.084a15.821,15.821,0,0,1-10.543-7.844,35.875,35.875,0,0,1-4.119-11.767,84.357,84.357,0,0,1-1.549-13.765,10.623,10.623,0,0,0-.51-3.063,1.942,1.942,0,0,0-3.011-.816,10.238,10.238,0,0,0-2.964,3.872,81.768,81.768,0,0,1-4.083,8.975c-6.506,12.1-15.881,20.951-29.465,25.013-3.518,1.044-6.953,2.007-10.637.93a14.551,14.551,0,0,0-2.7-.367C370.923,222.714,362.6,224.027,355.547,230Z" transform="translate(3853.539 2293.924)" fill="#12afcb" fill-rule="evenodd"/>
        <path id="Caminho_138" data-name="Caminho 138" d="M474.075,250.942c.271-.114.548-.334.806-.326,8.958.236,15.753,4.392,21.015,11.27a7.881,7.881,0,0,1,.979,1.995c1.845,4.906,2.384,10.069,3.248,15.664C488.207,275.512,474.482,260.182,474.075,250.942Z" transform="translate(3838.752 2284.591)" fill="#12afcb" fill-rule="evenodd"/>
        <path id="Caminho_141" data-name="Caminho 141" d="M449.411,383.691c-.111-.186-.23-.371-.349-.557.038.093.033.214.105.272a1.543,1.543,0,0,0,.36.176A1.413,1.413,0,0,0,449.411,383.691Z" transform="translate(3841.804 2268.419)" fill="#ffeff4" fill-rule="evenodd"/>
        <path id="Caminho_142" data-name="Caminho 142" d="M381.995,388.178c4.047-.031,8.679-6.039,8.056-9.568a12.226,12.226,0,0,0-3.563-7.047c-1.857-1.753-3.58-1.558-4.721.638q-2.88,5.565-5.53,11.244c-.79,1.68-.306,2.877,1.469,3.6A37.51,37.51,0,0,0,381.995,388.178Z" transform="translate(3850.736 2269.975)" fill="#ffe7a4" fill-rule="evenodd"/>
        <path id="Caminho_143" data-name="Caminho 143" d="M356.232,437.122c1.974,2.34,3.076,6.122,5.744,4.911a18.043,18.043,0,0,0,2.363-1.3c5.137-3.345,5.54-8.909.982-13.079-2.327-2.135-5.4-1.594-6.547,1.332A43.046,43.046,0,0,0,356.232,437.122Z" transform="translate(3853.274 2263.145)" fill="#ffe7a4" fill-rule="evenodd"/>
        <path id="Caminho_144" data-name="Caminho 144" d="M457.192,444.019c-.7-3.317.747-1.475,0-4.633-.745-3.133-4.426-2.675-7.45-1.337-2.593,1.148-3.708,3.352-4.066,5.97-.352,2.558-.581,4.181,1.688,5.641C450.726,451.835,453.25,445.461,457.192,444.019Z" transform="translate(3842.227 2261.774)" fill="#ffe7a4" fill-rule="evenodd"/>
        <path id="Caminho_146" data-name="Caminho 146" d="M442.591,380.509a16.147,16.147,0,0,0-2.718,1.474,8.778,8.778,0,0,0-2.8,4.968c-1.292,6.231,1.325,10.083,7.679,11.173a1.528,1.528,0,0,0,1.789-1.9c-.785-3.47-1.646-6.919-2.508-10.377C443.645,384.29,443.2,382.735,442.591,380.509Z" transform="translate(3843.307 2268.74)" fill="#ffe7a4" fill-rule="evenodd"/>
        <path id="Caminho_147" data-name="Caminho 147" d="M407.2,362.617c1.263,3.13,2.92,5.082,5.924,5.282a6.552,6.552,0,0,0,3.339-1,3.958,3.958,0,0,0,2.234-3.366C414.9,363.369,411.287,362.862,407.2,362.617Z" transform="translate(3846.912 2270.923)" fill="#ffe7a4" fill-rule="evenodd"/>
        <path id="Caminho_148" data-name="Caminho 148" d="M414.762,417.727a31.394,31.394,0,0,0-1.338-4.665c-1.939-4.207-6.771-5.346-10.58-2.641a9.253,9.253,0,0,0-3.8,5.371c-1.559,6.2,4.186,11.972,10.628,10.575a6.144,6.144,0,0,0,2.917-1.9C414.306,422.6,414.666,420.24,414.762,417.727Z" transform="translate(3847.94 2265.268)" fill="#ffe7a4" fill-rule="evenodd"/>
        <path id="Caminho_149" data-name="Caminho 149" d="M429.277,312.885a19.733,19.733,0,0,0-7.688-2.011c-4.208-.363-8.377-1.074-12.574-1.6-.865-.115-1.742-.074-2.924-.107a13.368,13.368,0,0,0,.053,2.316c.762,3.792,1.49,7.585,2.4,11.345.834,3.424,3.151,5.256,6.746,5.6,7.364.713,10.191-1.79,12.488-7.138A16.288,16.288,0,0,0,429.277,312.885Z" transform="translate(3847.051 2277.446)" fill="#f2f3f5" fill-rule="evenodd"/>
        <path id="Caminho_153" data-name="Caminho 153" d="M394.147,418.835a10.206,10.206,0,0,0,2.849,6.4,14.518,14.518,0,0,0,12.3,4.512c3.168-.275,5.127-2.233,6.81-4.675,2.637-3.842,2.716-13.014-1.871-17.538a10.452,10.452,0,0,0-12.476-1.962A13.892,13.892,0,0,0,394.147,418.835Zm20.048-1.675c-.087,2.513-.447,4.861-2.177,6.733a6.222,6.222,0,0,1-2.917,1.9c-6.433,1.406-12.187-4.378-10.628-10.575a9.253,9.253,0,0,1,3.8-5.37,6.891,6.891,0,0,1,10.58,2.641A31.986,31.986,0,0,1,414.195,417.16Z" transform="translate(3848.507 2265.834)" fill="#00596a" fill-rule="evenodd"/>
        <path id="Caminho_154" data-name="Caminho 154" d="M406.267,323.437c.6,4.607,5.659,10.434,12.807,9.947a13.279,13.279,0,0,0,11.076-6.668c.745-1.2.172-5.59-1.9-8.164-1.454-1.814-5.5-4.048-11.565-3.6S405.67,318.829,406.267,323.437Zm19.241-1.286c.6,2.913-1.459,7.855-8.824,7.151-3.6-.342-5.1-2.44-5.936-5.865-.424-1.756,3.229-4.563,6.919-4.884S425.189,320.6,425.508,322.151Z" transform="translate(3847.032 2276.747)" fill="#00596a" fill-rule="evenodd"/>
        <path id="Caminho_155" data-name="Caminho 155" d="M376.561,264.3c.228,3.577,2.472,5.767,5.533,5.852a5.887,5.887,0,0,0,6.292-5.133,9.383,9.383,0,0,0-.082-2.645c-.456-2.978-1.666-4.478-3.85-4.839-2.747-.443-5.048.191-6.645,2.638A6.974,6.974,0,0,0,376.561,264.3Z" transform="translate(3850.653 2283.762)" fill="#00596a" fill-rule="evenodd"/>
        <path id="Caminho_156" data-name="Caminho 156" d="M456.872,282.087a6.478,6.478,0,0,0,6.972,6.554c3.975-.115,7-2.886,6.811-6.248-.209-3.744-3.82-7.254-7.357-7.173C460.088,275.307,456.751,278.862,456.872,282.087Z" transform="translate(3840.852 2281.589)" fill="#00596a" fill-rule="evenodd"/>
        <path id="Caminho_157" data-name="Caminho 157" d="M295.046,420.274c2.737.192,4.525.325,6.312.44,1.089.072,2.145.223,2.61,1.386.4,1.01-.036,2.033-1.334,3.028-.711.557-1.54.97-2.224,1.551a8.515,8.515,0,0,0-1.813,1.961,1.966,1.966,0,0,0,.1,1.585,1.3,1.3,0,0,0,1.174.312,33.679,33.679,0,0,0,3.3-1.461,19.242,19.242,0,0,1,2.815-1.417,2.464,2.464,0,0,1,2.029.357,2.42,2.42,0,0,1,.548,1.985c-.241,1.147-.865,2.212-1.227,3.346a1.427,1.427,0,0,0,1.471,1.795c1.268.047,2.45-.136,2.878-1.576.4-1.37.942-2.666,2.719-2.351,1.474.257,1.556,1.522,1.825,2.736a3.666,3.666,0,0,0,5.263,2.32,2.489,2.489,0,0,0,1.053-1.35,19.584,19.584,0,0,0,.814-8.384c-.452-3.1-1.049-6.169-1.552-9.267a5.686,5.686,0,0,0-1.326-2.745c-1.662-2.065-3.519-4.045-3.859-6.906a3.946,3.946,0,0,0-1.519-2.156,21.4,21.4,0,0,0-13.666-5.234c-2.618-.006-3.512,1.191-3.142,3.713a5.605,5.605,0,0,0,2.133,3.809c.949.737,1.972,1.376,2.954,2.076.893.636,1.654,1.4,1.285,2.6a2.195,2.195,0,0,1-2.1,1.433C298.955,414.266,297.3,416.889,295.046,420.274Z" transform="translate(3860.599 2266.333)" fill="#ffeff4" fill-rule="evenodd"/>
        <path id="Caminho_152" data-name="Caminho 152" d="M430.108,357.608a18.3,18.3,0,0,1,1.946,2.289,134.509,134.509,0,0,0,11.633,16.511c4.187,5.1,8.391,10.182,12.7,15.185,2.233,2.59,4.709,5,7.3,7.714-.976,1.756-1.995,3.548-2.977,5.374-1.417,2.632-2.9,5.232-4.155,7.945a9.661,9.661,0,0,0,.271,8.637c1.4,2.831,2.368,3.22,5.805,2.551a5.143,5.143,0,0,1,.982.015,22.818,22.818,0,0,0,1.6,2.033,4.747,4.747,0,0,0,6.541.788,38.163,38.163,0,0,0,3.551-2.912,22.209,22.209,0,0,0,3.019,1.988,11.515,11.515,0,0,0,3.843,1.175c3.185.2,5.1-1.746,5.044-4.9a18.037,18.037,0,0,0-.331-3.105c-.184-.991-.539-1.959-.876-3.162,1.46-.551,2.491.279,3.558.508a8.689,8.689,0,0,0,5.352-.132A3.192,3.192,0,0,0,497.068,413a9.555,9.555,0,0,0-1.8-5.446c-.8-1.238-1.7-2.4-2.646-3.738a23.141,23.141,0,0,0,2.479-2.1,23.956,23.956,0,0,0,3.34-4.2c2.131-3.823.212-7.658-4.164-8.4a22.2,22.2,0,0,0-5.432-.151c-7.5.594-14.629,2.408-20.747,6.893a7.722,7.722,0,0,1-5.041-2.831c-1.831-1.989-3.713-3.941-5.411-6.031-5.678-6.975-11.474-13.868-16.825-21.083a118.157,118.157,0,0,1-8.413-13.767c-2.5-4.551-4.62-9.3-7.054-14.252,1.475-.412,2.882-.8,4.2-1.175a8.9,8.9,0,0,1,1.867,4.3c.694,2.9,1.346,5.81,2.057,8.709a17.166,17.166,0,0,0,3.652,7.608,16.886,16.886,0,0,0,11.638,5.363,8.388,8.388,0,0,0,6.895-2.856,30.5,30.5,0,0,0,2.655-3.616c.752-1.105,1.431-2.259,2.309-3.656a27.249,27.249,0,0,1,2.23,1.6c1.016.891,1.9,1.934,2.946,2.781,2.985,2.441,6.241,2.2,8.811-.67a17.846,17.846,0,0,0,3.592-6.673c.446-1.415.788-2.86,1.274-4.624a18.934,18.934,0,0,1,2.01.775c1.591.853,3.11,1.854,4.724,2.653a13.156,13.156,0,0,0,10.159.59c3.769-1.219,5.715-3.793,5.724-7.683a21.222,21.222,0,0,0-3.051-10.643c-1.926-3.375-4.105-6.609-6.167-9.91a30.465,30.465,0,0,1-3.52-6.354c2.153-.949,4.266-1.081,6.282-1.538a26.121,26.121,0,0,0,12.022-6c5.007-4.522,7.6-9.985,6.425-16.791a42.451,42.451,0,0,0-1.493-6.535c-2.436-7.106-6.54-9.99-14.429-10.2a10.008,10.008,0,0,1-.145-2.478c3.018-16.732-.136-32.624-6.664-48.043a121.921,121.921,0,0,0-9.954-18.553,52.645,52.645,0,0,0-10.057-11.465c-6.184-5.3-12.622-10.231-20.066-13.753-1.49-.709-3.021-1.336-4.559-1.939-1.119-.444-2.342-.667-3.421-1.191-5.2-2.53-10.873-3.55-16.4-4.982-8.036-2.094-16.177-1.918-24.331-.482a81.275,81.275,0,0,0-16.145,4.454,57.309,57.309,0,0,0-16.215,9.727c-10.063,8.637-18.507,18.453-24,30.556a113.928,113.928,0,0,0-5.313,15.681c-.236.824-.551,1.636-.923,2.726-.911-.417-1.544-.75-2.2-1.011-5.169-2.106-9.808-1.115-13.848,2.527a17.906,17.906,0,0,0-6.182,14.785,32.328,32.328,0,0,0,4.917,16.078,82.576,82.576,0,0,0,12.714,15.689c.955.919,1.911,1.838,3.109,2.982-.762.585-1.3,1.056-1.893,1.435a81.762,81.762,0,0,0-15.938,13.919,19.139,19.139,0,0,0-4.691,9.05,9.331,9.331,0,0,0,6.932,11.01c.723.207,1.485.3,2.222.455.712.155,1.425.328,2.355.554-.565,1.463-1.106,2.655-1.5,3.894-1.812,5.678,1.021,9.8,7.033,10.285,1.054.082,2.106.138,3.315.213.53,1.057,1.027,2.133,1.616,3.152a9.81,9.81,0,0,0,7.179,4.957,16.4,16.4,0,0,0,9.774-1.158c5.69-2.611,10.163-6.426,12.845-12.119.247-.53.556-1.028.894-1.665a13.288,13.288,0,0,1,1.683.8c.981.658,1.921,1.386,3.09,2.246a25.318,25.318,0,0,1-1.648,2.7c-7.334,9.314-14.6,18.688-22.1,27.879-5.344,6.548-11.414,12.385-19.076,16.356-2,1.039-4.086,1.951-6.182,2.794-1.833.737-2.693.327-3.629-1.452a7.335,7.335,0,0,1-.349-.82c-1.33-3.771-4.106-6.167-7.64-7.849-3.28-1.569-6.614-2.972-10.334-3.17-.457-.026-.9-.14-1.349-.149-5.385-.04-8.465,3.739-7.178,8.874a14.719,14.719,0,0,0,1.338,3.3,30.092,30.092,0,0,0,2.064,2.918c-1.083.987-2.279,1.91-3.263,3.005a17.957,17.957,0,0,0-2.621,3.624c-1.106,2.186-.529,4.014,1.514,5.448a22.285,22.285,0,0,0,2.617,1.369c-.442.842-.888,1.571-1.221,2.338-1.9,4.353.2,7.521,4.929,7.438.9-.017,1.795-.155,2.618-.237.311.248.617.385.738.623,1.813,3.561,3.4,4.63,7.079,3.892a8.079,8.079,0,0,1,6.025.816,8.7,8.7,0,0,0,3.957.806c3.328.075,5.542-1.52,6.309-4.7.91-3.776,1.464-7.583.569-11.508-.762-3.323-1.165-6.72-1.745-10.241,1.515-.726,2.841-1.4,4.2-2a58.8,58.8,0,0,0,17.666-12.4c4.807-4.791,8.9-10.164,13.115-15.445,1.851-2.328,3.693-4.672,5.584-7.061.865,1.01.131,1.654-.167,2.212-6.551,12.507-10.925,25.868-15.886,39-2.946,7.8-1.654,6.522-4.191,14.45-.631,1.962,33.311,18.748,63.045,16.871,18.16-1.147,33.669-11.2,33.366-12.555-2.776-12.512-.361-4.988-3.334-17.457-2.35-9.862-5-19.661-7.451-29.493a35.526,35.526,0,0,1-.552-4.391,1.933,1.933,0,0,1-.36-.177c-.071-.058-.067-.18-.1-.274C429.879,357.235,430,357.421,430.108,357.608ZM450.523,236.2c-1.373-4-1.413-5.07-.356-9.3.673-2.708.233-3.456-2.528-4.02-1.927-.4-3.882-.644-5.794-1.084a15.822,15.822,0,0,1-10.543-7.843,35.88,35.88,0,0,1-4.118-11.766,84.268,84.268,0,0,1-1.549-13.765,10.648,10.648,0,0,0-.511-3.063,1.941,1.941,0,0,0-3.01-.816,10.238,10.238,0,0,0-2.964,3.871,81.784,81.784,0,0,1-4.083,8.975c-6.506,12.1-15.881,20.95-29.465,25.012-3.518,1.044-6.953,2.007-10.636.93a14.556,14.556,0,0,0-2.7-.367c-8.9-.854-17.225.466-24.287,6.436a31.6,31.6,0,0,1-2.648,1.732,78.559,78.559,0,0,1,4.723-14.175c4.836-10.7,12.189-19.491,20.868-27.364a58.087,58.087,0,0,1,19.67-11.759,79.084,79.084,0,0,1,18.126-3.973,46.183,46.183,0,0,1,17.138,1.118,192.45,192.45,0,0,1,19.061,5.786c8.318,3.169,15.743,7.587,21.735,14.186,1.41,1.553,2.711,3.406,4.487,4.389,2.946,1.635,4.66,4.166,6.411,6.758a117.417,117.417,0,0,1,10.2,18.926,83.746,83.746,0,0,1,7.088,37.034,40.759,40.759,0,0,1-2.06,12.147,15.474,15.474,0,0,1-10.415-2.143c-.775-4.833-1.454-9.392-2.253-13.938a22.406,22.406,0,0,0-7.962-14.141,32.715,32.715,0,0,0-18.566-7.55C452.536,236.368,451.49,236.277,450.523,236.2ZM360.49,412.87c3.126-2.558,4.8-8.245,3.82-11.994-1.259-4.859-3.63-8.859-9.232-9.873a8.15,8.15,0,0,1-1.619-.677c1.626-4.411,3.122-8.627,4.749-12.8,1.611-4.124,2.714-8.472,5.169-12.385a36.841,36.841,0,0,0,3.484,1.493,12.259,12.259,0,0,0,7.13.427c6.648-1.857,11.081-9.3,9.166-15.81a14.915,14.915,0,0,0-5.831-8.3c-.716-.5-1.474-.952-2.507-1.616,1.443-2.2,1.8-4.748,3.4-6.927,3.361,1.2,6.608,2.348,9.977,3.55.288.8.62,1.617.893,2.45a12.611,12.611,0,0,0,4.531,6.011,8.77,8.77,0,0,0,10.178.659,12.687,12.687,0,0,0,4.146-4.064c.76-1.088,1.476-2.208,2.226-3.349,3.568-.16,6.976-.922,10.6-.624a31.5,31.5,0,0,1,2.924,11.378,38.755,38.755,0,0,0-4.6,3.212c-3.3,3.085-4.188,7.087-4.146,11.435a9.782,9.782,0,0,0,4.531,8.3,20.77,20.77,0,0,0,7.487,3.078c1.163.26,2.32.529,3.371.776,2.541,7.606,5.508,20.119,5.591,23.737a20.063,20.063,0,0,1-2.177.073c-4.111-.331-6.938,1.7-9.112,4.832-.766,1.1-1.491,7.776-.6,11.519s-25.509,7.387-44.145,3.995C366.051,418.849,359.969,413.295,360.49,412.87ZM418.1,263.218a6.623,6.623,0,0,1,.207,1.624c-.7,4.49-.09,8.886.6,13.332,2.494,16.021,19.689,30.17,41.171,22.4,9.6-4.651,16.846-11.5,20.806-21.458a23.665,23.665,0,0,1,1.1-2.151l9.122,2.331a10.725,10.725,0,0,1-.32,1.81,67.818,67.818,0,0,1-20.863,29.812,117.8,117.8,0,0,1-26.935,16.451,88.909,88.909,0,0,1-43.72,7.967,52.118,52.118,0,0,1-34.431-16.069C358.477,312.714,353.995,305,349.879,297a53.622,53.622,0,0,1-5.644-20.557c-.059-.658-.392-1.514.729-1.712a53.623,53.623,0,0,0,4.2,4.687c9.017,8.047,24.533,9.557,33.956,2.238,1.306-1.013,2.666-1.967,4.026-2.9a17.469,17.469,0,0,0,5.757-6.79c1.194-2.407,2.212-4.893,3.247-7.372.68-1.64,1.262-3.32,1.929-5.083C405.517,257.692,411.707,261.07,418.1,263.218ZM343.742,242.1c4.167-.036,7.944.1,11.708-.128,7.227-.428,13.6-2.657,17.935-8.881a39.126,39.126,0,0,1,2.966-3.368,3.253,3.253,0,0,1,3.693-.972,26.057,26.057,0,0,1,9.515,5.007,14.1,14.1,0,0,1,4.5,7.055,30.1,30.1,0,0,1,.7,13.241,58.717,58.717,0,0,1-3.809,12.351c-1.556,3.758-3.536,7.244-7.3,9.366a9.08,9.08,0,0,0-1.4,1.129c-4.2,3.579-9.158,4.99-14.63,5.135a16.584,16.584,0,0,1-8.675-2.148c-8.867-4.945-15.543-11.649-17.625-21.964C340.2,252.387,339.888,247.042,343.742,242.1Zm102.8-.726c.446,1.1.832,2.209,1.328,3.267,1.133,2.432,2.165,4.928,3.5,7.249A52.058,52.058,0,0,0,470.19,270.86c2.308,1.38,4.649,2.7,6.867,3.988a13.179,13.179,0,0,1-2.737,8.108,41.453,41.453,0,0,1-11.073,11.114,25.278,25.278,0,0,1-10.457,4.092c-16.285,2.576-27.506-8.68-29.5-19.685a71.149,71.149,0,0,1-1-7.968c-.929-13.311,10.266-25.532,19.683-28.43A9.465,9.465,0,0,1,446.539,241.378Zm-1.486-14.41c.132,3.538.247,6.6.365,9.754-12.9,2.691-20.584,11.047-25.859,22.221-3.476-1.068-6.733-2.256-10.088-3.059-3.328-.795-6.753-1.187-10.281-1.783a40.059,40.059,0,0,0-.367-11.648,19.924,19.924,0,0,0-9.087-13.828c-.821-.534-1.568-1.165-2.755-2.041,1.985-.8,3.5-1.416,5.005-2.038a47.223,47.223,0,0,0,19.428-14.285,74.443,74.443,0,0,0,8.369-12.74c.344-.682.351-1.872,1.949-1.75.241,1.346.526,2.767.752,4.2.885,5.464,2.152,10.781,4.92,15.7a20.722,20.722,0,0,0,13.58,10.325C442.307,226.317,443.618,226.623,445.053,226.968Zm29.394,85.592c2.534.521,4.459.865,6.353,1.306,1.92.457,3.855,1.053,4.963,2.817,3.277,5.182,6.6,10.353,9.646,15.665a21.262,21.262,0,0,1,2.4,6.683c.9,4.872-1.158,7.025-6.227,6.694a12.484,12.484,0,0,1-4.316-1.192,43.739,43.739,0,0,1-4.643-2.786c-1.023-.639-1.965-1.411-3.02-1.979-2.127-1.154-3.532-.493-3.92,1.788-.2,1.179-.169,2.4-.479,3.543a35.479,35.479,0,0,1-2.114,6.331c-2.32,4.75-4.03,3.46-6.342,1.072a30.406,30.406,0,0,0-3.622-3.371,3.572,3.572,0,0,0-5.239.64,31.89,31.89,0,0,0-2.313,3.308c-.651,1.006-1.205,2.069-1.883,3.058a5.558,5.558,0,0,1-5.9,2.5c-4.214-.771-7.745-2.583-9.435-6.782a29.977,29.977,0,0,1-1.246-3.825c-.87-3.466-1.69-6.961-2.484-10.448a14.039,14.039,0,0,1-.105-2.357C449.243,329.919,462.808,322.818,474.447,312.56ZM341.591,288.169c1.119,2.745,2,5.126,3.043,7.422,4.541,9.953,9.974,19.343,17.78,27.255,2.722,2.763,2.822,4.288.842,7.522a20.9,20.9,0,0,1-11.868,9.2c-5.21,1.637-8.848-.083-10.809-5.054-.932-2.344-2.4-3.262-4.834-3.057a14.038,14.038,0,0,1-2.265,0c-3.342-.256-4.665-1.986-3.755-5.068a18.749,18.749,0,0,1,1.489-3.242c.555-1.054,1.284-2.028,1.788-3.1a2.194,2.194,0,0,0-1.87-3.256c-1.054-.09-2.117.062-3.17-.011a19.343,19.343,0,0,1-4.024-.508q-4.375-1.255-4.018-5.658a10.607,10.607,0,0,1,.975-3.849,16.7,16.7,0,0,1,3-4.42c3.747-3.666,7.628-7.207,11.572-10.68A16.072,16.072,0,0,1,341.591,288.169ZM294.539,392.1c2.259-3.385,3.9-6.008,7.521-6.4a2.187,2.187,0,0,0,2.1-1.434c.369-1.195-.392-1.956-1.285-2.6-.982-.7-2.005-1.331-2.954-2.077a5.6,5.6,0,0,1-2.133-3.809c-.37-2.522.524-3.727,3.142-3.713a21.394,21.394,0,0,1,13.666,5.234,3.948,3.948,0,0,1,1.519,2.157c.34,2.861,2.2,4.84,3.859,6.905a5.7,5.7,0,0,1,1.326,2.746c.5,3.09,1.1,6.167,1.552,9.267a19.568,19.568,0,0,1-.815,8.383,2.483,2.483,0,0,1-1.052,1.351,3.667,3.667,0,0,1-5.263-2.32c-.277-1.2-.351-2.478-1.825-2.736-1.786-.314-2.314.982-2.719,2.351-.428,1.441-1.6,1.632-2.878,1.576a1.427,1.427,0,0,1-1.471-1.794c.363-1.134.986-2.2,1.227-3.346a2.418,2.418,0,0,0-.548-1.985,2.464,2.464,0,0,0-2.029-.358,18.949,18.949,0,0,0-2.815,1.417,32.858,32.858,0,0,1-3.3,1.462c-.331.117-1.061-.064-1.174-.312a1.969,1.969,0,0,1-.1-1.586,8.55,8.55,0,0,1,1.813-1.961c.684-.581,1.513-1,2.224-1.551,1.3-1,1.741-2.028,1.334-3.029-.466-1.171-1.522-1.314-2.61-1.386C299.072,392.418,297.285,392.294,294.539,392.1Zm184.333-83.069a11.574,11.574,0,0,1,.94-1.564,75.687,75.687,0,0,0,15.106-25.3,11.678,11.678,0,0,1,1.824-3.038,3.492,3.492,0,0,1,1.824-1.18c2.493-.6,4.915-.315,6.694,1.658a16.081,16.081,0,0,1,2.965,4.43,45.891,45.891,0,0,1,1.586,6.026c1.306,5-.521,9.093-3.892,12.667a20.351,20.351,0,0,1-8.781,5.384,37.469,37.469,0,0,1-11.163,1.793A17.3,17.3,0,0,1,478.871,309.033Zm-18.1,110.605a5.427,5.427,0,0,1-.888-1.391,5.774,5.774,0,0,1,.38-4.347c1.246-2.383,2.483-4.765,3.738-7.148a21.809,21.809,0,0,1,7.337-8.282c6.564-4.346,13.831-5.8,21.56-5.674a2.937,2.937,0,0,1,.45.07c1.6.313,2.317,1.623,1.515,2.973-1.863,3.162-4.508,5.189-8.38,5.283a23.54,23.54,0,0,0-2.718.1,1.926,1.926,0,0,0-1.822,1.7,1.737,1.737,0,0,0,1.443,1.969c.861.228,1.79.2,2.667.385a6.936,6.936,0,0,1,2.535.765A10.527,10.527,0,0,1,493,412.426a14.593,14.593,0,0,1-3.292-.293c-1.561-.531-3.014-1.38-4.545-2.017a24.732,24.732,0,0,0-3.815-1.368,2.024,2.024,0,0,0-2.248,2.55c.4,1.114,1.1,2.112,1.567,3.206.878,2.042,1.747,4.1,2.506,6.192a1.362,1.362,0,0,1-.652,1.9,2.138,2.138,0,0,1-1.7-.04,16.812,16.812,0,0,1-2.875-2.731c-.551-.673-.684-1.685-1.226-2.368a2.707,2.707,0,0,0-1.805-1.061,2.471,2.471,0,0,0-1.705,1.158c-.654,1.162-.957,2.511-1.594,3.681-.644,1.187-1.508,2.27-3.373,1.932a7.19,7.19,0,0,1-.93-1.849,30.991,30.991,0,0,1-.374-4c-.09-1.464.219-3.117-1.739-3.668-1.158-.33-1.849.529-2.452,3.061C462.483,417.9,462.338,419.094,460.774,419.639ZM340.066,278.962c-.72.1-.9.19-.985.133a5.54,5.54,0,0,1-1.114-.766,76.064,76.064,0,0,1-12.5-15.837,27.512,27.512,0,0,1-3.537-12.821,13.962,13.962,0,0,1,4.95-11.552,8.822,8.822,0,0,1,6.657-2.326c3.081.17,4.665,1.76,4.692,4.79a10.38,10.38,0,0,1-.515,3.024,29.763,29.763,0,0,0,.319,19.315,13.013,13.013,0,0,1,.828,3.017C339.318,270.229,339.668,274.531,340.066,278.962Zm137.7-9.325c-11.916-4.04-25.641-19.378-26.048-28.61.271-.115.548-.334.806-.326,8.957.236,15.753,4.391,21.014,11.27a7.794,7.794,0,0,1,.979,1.995C476.365,258.88,476.894,264.035,477.767,269.637Zm-106.144,94.01a35.1,35.1,0,0,1-4.3-1.14c-1.775-.715-2.259-1.921-1.47-3.6,1.78-3.774,3.611-7.534,5.53-11.244,1.141-2.2,2.865-2.392,4.722-.637a12.247,12.247,0,0,1,3.563,7.047C380.311,357.607,375.67,363.617,371.623,363.647ZM346.664,237.8c3.765-7.792,16.091-12.831,25.235-9.876-.829,1.108-1.625,2.154-2.4,3.225a15.057,15.057,0,0,1-8.87,5.761C356.155,238.033,351.659,237.777,346.664,237.8Zm1.394,169.693a63.494,63.494,0,0,1,2.874-9.873c1.148-2.926,4.219-3.467,6.547-1.332,4.558,4.17,4.155,9.733-.983,13.079a17.438,17.438,0,0,1-2.363,1.3c-1.167.532-2.27-1.56-2.27-1.56S349.166,408.806,348.059,407.493Zm78.913,8.549c-2.268-1.46,2.144,2.283-.168-4.745.358-2.618,1.464-4.822,4.065-5.97a5.428,5.428,0,0,1,7.451,3.488C439.059,411.965,430.326,418.2,426.972,416.042Zm-2.182-61.3c.609,2.226,1.054,3.781,1.441,5.347.861,3.458,1.723,6.907,2.507,10.377a1.53,1.53,0,0,1-1.789,1.9c-6.353-1.09-8.969-4.951-7.678-11.173a8.806,8.806,0,0,1,2.8-4.968A16.153,16.153,0,0,1,424.79,354.743Zm-31.782-15.709c4.075.247,7.685.753,11.5.913a3.962,3.962,0,0,1-2.234,3.367,6.521,6.521,0,0,1-3.338,1C395.937,344.116,394.279,342.164,393.008,339.034Z" transform="translate(3861.107 2294.505)" fill="#00596a" fill-rule="evenodd"/>
      </g>
      <path id="Caminho_215" data-name="Caminho 215" d="M393.927,131.079a169.613,169.613,0,0,0-26.939-54.022,190.373,190.373,0,0,0-44.135-42.68A193.244,193.244,0,0,0,266.359,7.427a190.3,190.3,0,0,0-61.872-7.2,229.1,229.1,0,0,0-53.949,9.192,238.086,238.086,0,0,0-51.38,21.947A218.572,218.572,0,0,0,54.733,65.006a189.3,189.3,0,0,0-33.745,44.745A174.615,174.615,0,0,0,2.34,164.612a194.763,194.763,0,0,0,.646,63.995,187.134,187.134,0,0,0,21.954,60.25c10.977,19.5,24.821,37.316,39.892,53.815C80.71,360.055,98.074,376.044,116,391.284c18.054,15.389,36.806,29.971,55.641,44.436Q184.722,445.764,197.8,455.8a2.22,2.22,0,0,0,3.1.252c18.642-13.523,37.052-27.382,54.841-42.022a592.47,592.47,0,0,0,49.675-45.391,403.266,403.266,0,0,0,42.158-51.091,326.35,326.35,0,0,0,32.286-58.921c8.853-21.069,16.3-43.584,19.055-66.344A154.778,154.778,0,0,0,393.927,131.079Zm-.691,62.961c-1.53,11.3-4.52,22.392-7.852,33.288-12.959,42.4-35.191,81.236-63.68,115.112-28.412,33.766-62.105,62.651-97.129,89.3q-12.378,9.425-24.989,18.545c-36.16-27.853-72.92-55.158-106.175-86.5-31.64-29.816-61.44-64.227-76.769-105.481C2.437,220.08,1.513,176.289,14.77,137.669c11.952-34.824,35.514-64.827,64.843-86.8a230.516,230.516,0,0,1,99.343-42.4,200.146,200.146,0,0,1,56.39-1.756,184.208,184.208,0,0,1,59.012,17.338c36.1,17.544,66.67,46.6,84.375,82.778a154,154,0,0,1,15.42,56.559A149.758,149.758,0,0,1,393.236,194.04Z" transform="translate(3771 2727)" fill="#0c8aa1"/>
      <path id="Caminho_216" data-name="Caminho 216" d="M193.444,309.642c-22.09,0-43.534-11.9-62.046-31.105-1.507-1.565,5.073,1.948,15.588,8.529,5.029,3.147,11.269,7.213,17.888,11.755a75.788,75.788,0,0,0,27.933,6.27,77.291,77.291,0,0,0,21.449-2.327c25.156-9.22,48.938-23.776,46.264-21.918-17.869,15.046-38.1,26.522-61.369,28.578C197.247,309.565,195.349,309.642,193.444,309.642Z" transform="translate(3772 2726)" fill="#0c8aa1"/>
    </g>
  </g>
</svg>
