<svg xmlns="http://www.w3.org/2000/svg" width="400" height="490" viewBox="0 0 400 490">
  <g id="Grupo_12" data-name="Grupo 12" transform="translate(-3751 -3470)">
    <path id="Caminho_224" data-name="Caminho 224" d="M199.987,490c90.445,0,163.766-16.253,163.766-36.3s-73.321-36.3-163.766-36.3S36.221,433.648,36.221,453.7,109.541,490,199.987,490Z" transform="translate(3751 3470)" opacity="0.14"/>
    <path id="Caminho_225" data-name="Caminho 225" d="M397.214,169.725c0-.723-.045-1.44-.078-2.156s-.058-1.253-.09-1.872c0-.478-.052-.949-.091-1.42,0-.362-.045-.723-.071-1.078-.045-.691-.1-1.382-.161-2.072s-.129-1.427-.2-2.137-.136-1.336-.213-2-.142-1.214-.22-1.82-.155-1.233-.245-1.853-.149-1.091-.233-1.633l-.1-.645c-.1-.594-.188-1.188-.291-1.782s-.174-1.059-.271-1.588-.2-1.136-.31-1.7c-.078-.426-.162-.845-.246-1.291l-.232-1.155-.136-.646c-.109-.548-.226-1.1-.355-1.646a1.326,1.326,0,0,0,0-.155c-.1-.451-.2-.91-.31-1.361-.129-.569-.258-1.13-.4-1.692s-.233-.955-.355-1.426-.226-.91-.349-1.356a.511.511,0,0,0-.032-.116c-.168-.645-.336-1.291-.517-1.936s-.336-1.22-.516-1.821c-.246-.845-.5-1.691-.756-2.53l-.426-1.369q-.645-2.033-1.35-4.034c-.645-1.872-1.336-3.724-2.053-5.571q-.787-1.993-1.608-3.956t-1.633-3.744q-.834-1.872-1.724-3.705c-.588-1.227-1.189-2.447-1.815-3.66-.31-.607-.646-1.214-.943-1.814s-.645-1.207-.962-1.8-.645-1.2-.988-1.794-.645-1.188-1.007-1.782-.646-1.181-1.027-1.769-.7-1.175-1.052-1.756-.646-1.071-.982-1.6l-.155-.252c-.316-.51-.645-1.02-.962-1.523l-.11-.174c-.355-.555-.71-1.1-1.071-1.653s-.756-1.143-1.137-1.711-.762-1.13-1.156-1.7L367.1,81.789c-.381-.542-.768-1.078-1.162-1.62l-.078-.116L364.7,78.464q-1.227-1.652-2.493-3.279c-.426-.542-.846-1.084-1.291-1.62q-1.291-1.62-2.583-3.227-1.938-2.382-4.049-4.686-2.744-3.079-5.656-6.048L344.162,55.3l-1.511-1.426q-2.984-2.8-6.1-5.461L336,47.939c-.91-.768-1.827-1.536-2.757-2.292l-1.5-1.22-.213-.168-1.447-1.149-.155-.116-1.607-1.239-1.666-1.291-1.686-1.246c-.562-.413-1.13-.82-1.7-1.226s-1.156-.775-1.711-1.188-1.149-.794-1.724-1.188l-1.744-1.175-1.756-1.155-1.679-1.078-2.118-1.291-1.556-.949-1.937-1.175-1.692-.981c-.646-.349-1.22-.7-1.84-1.039s-1.227-.684-1.847-1.02l-1.859-1c-1.88-1-3.778-1.937-5.689-2.9-1.259-.607-2.525-1.213-3.8-1.8q-5.889-2.711-11.972-5.041l-1.782-.646-1.582-.575q-1.794-.645-3.59-1.252l-1.55-.516c-.51-.168-1.02-.336-1.53-.491-.646-.2-1.246-.4-1.873-.587s-1.362-.42-2.053-.646l-2.066-.6h-.032L262.7,9.254l-1.136-.3c-.465-.129-.937-.252-1.4-.368l-1.937-.491c-.781-.194-1.569-.381-2.35-.562-.646-.155-1.33-.31-2-.452S252.632,6.8,252,6.672q-4.2-.852-8.446-1.562l-1.207-.187c-.414-.071-.827-.136-1.247-.194-.645-.1-1.323-.194-1.988-.284l-1.027-.136q-1.715-.232-3.442-.426c-.917-.1-1.84-.2-2.763-.284l-1.731-.161c-.684-.065-1.375-.116-2.06-.168L225.9,3.116,223.923,3H223.7c-3.138-.161-6.3-.245-9.473-.245-109.087,0-233.748,87.691-208.152,227.8,16.976,92.906,114.336,162.167,193.443,223.141l3.228-2.363,1.776-1.291,3.306-2.42,4.139-3.053c1.382-1.014,2.751-2.034,4.126-3.06q6.419-4.783,12.734-9.618c1.136-.871,2.266-1.736,3.4-2.582q2.583-1.975,5.1-3.97l3.068-2.407,2.918-2.311q1.686-1.336,3.352-2.685,1.239-.994,2.473-2l2.944-2.395.413-.336,3.2-2.653,1.1-.91,3.035-2.537.31-.265q1.846-1.548,3.68-3.117c1.259-1.072,2.518-2.15,3.765-3.228l.1-.084,3.229-2.84,1.039-.91q1.446-1.291,2.88-2.582l.549-.491c.988-.877,1.969-1.768,2.951-2.659.374-.336.749-.645,1.123-1.026.724-.646,1.447-1.291,2.163-1.976.646-.561,1.24-1.136,1.854-1.717s1.168-1.078,1.75-1.626l1.607-1.511c.788-.742,1.576-1.484,2.357-2.24l.917-.877,2.841-2.744.646-.645,2.195-2.156q1.067-1.045,2.118-2.111c.433-.426.859-.859,1.292-1.291.607-.607,1.2-1.214,1.788-1.82.7-.7,1.389-1.407,2.06-2.117.381-.381.749-.762,1.111-1.143q1.123-1.162,2.221-2.324c.433-.445.859-.9,1.292-1.349q1-1.051,1.982-2.117.709-.756,1.395-1.511c.716-.774,1.433-1.555,2.137-2.336.342-.368.678-.743,1.007-1.117q.988-1.071,1.937-2.162.873-.969,1.724-1.937c.369-.413.73-.82,1.079-1.233q1.292-1.472,2.583-2.963c1.052-1.226,2.092-2.452,3.118-3.692l1.544-1.859.762-.929q.6-.723,1.181-1.453,1.744-2.15,3.448-4.312c.375-.471.749-.949,1.118-1.426q2.744-3.512,5.391-7.1.727-.967,1.434-1.936l1.42-1.937q.708-.967,1.408-1.936c.465-.646.936-1.291,1.395-1.975s.923-1.291,1.381-1.982c.988-1.427,1.938-2.866,2.926-4.3.381-.575.762-1.143,1.136-1.717s.878-1.33,1.291-1.995l.046-.071c.432-.646.859-1.33,1.291-2s.872-1.369,1.292-2.053.858-1.368,1.291-2.059.852-1.381,1.291-2.072l1.292-2.085q1.88-3.137,3.687-6.319.613-1.065,1.2-2.13,3.113-5.565,6.018-11.29c.284-.575.575-1.149.865-1.724.614-1.233,1.227-2.478,1.828-3.724.258-.529.51-1.052.755-1.582s.446-.936.646-1.407q1.589-3.369,3.1-6.8c.336-.762.646-1.53,1-2.3s.646-1.472.949-2.207q1.569-3.732,3.054-7.527.389-.962.756-1.936c.3-.788.607-1.582.9-2.376q4.436-11.818,8.02-24.348c.245-.852.484-1.71.723-2.582q1.776-6.455,3.319-13.058A152.647,152.647,0,0,0,397.214,169.725Zm-97.006,48.618a94.29,94.29,0,0,1-39.518,62.613,111.175,111.175,0,0,1-61.756,25.717c-50.566,4.105-92.6-48.664-99.5-94.081-9.3-61.438,39.976-122.909,104.457-118.545a101.575,101.575,0,0,1,33.08,7.881C281.082,120.719,308.37,169.337,300.208,218.343Z" transform="translate(3751 3470)" fill="#f4f4ff"/>
    <path id="Caminho_226" data-name="Caminho 226" d="M393.738,206.673q-1.537,6.628-3.319,13.058c-.239.859-.478,1.717-.723,2.582q-3.564,12.522-8.02,24.335c-.3.794-.6,1.588-.9,2.376q-.367.974-.755,1.936-1.479,3.8-3.055,7.527c-.316.735-.645,1.478-.949,2.207s-.646,1.536-1,2.3q-1.51,3.428-3.1,6.8c-.22.471-.439.943-.646,1.407s-.5,1.053-.755,1.582c-.6,1.246-1.214,2.491-1.828,3.724-.29.575-.581,1.149-.865,1.724q-2.906,5.725-6.018,11.29-.588,1.065-1.2,2.13-1.808,3.182-3.687,6.319l-1.292,2.085c-.419.691-.845,1.381-1.291,2.072s-.852,1.375-1.291,2.059-.866,1.369-1.292,2.053-.852,1.336-1.291,2l-.046.071c-.432.645-.871,1.33-1.291,1.995s-.755,1.142-1.136,1.717q-1.445,2.158-2.925,4.3c-.459.645-.917,1.323-1.382,1.982s-.924,1.291-1.395,1.975-.936,1.291-1.408,1.936l-1.42,1.937q-.708.967-1.434,1.936-2.648,3.57-5.391,7.1c-.369.477-.743.955-1.118,1.426q-1.7,2.169-3.448,4.312-.581.73-1.181,1.453l-.762.929-1.544,1.859c-1.026,1.24-2.066,2.466-3.118,3.692q-1.291,1.491-2.583,2.963c-.349.413-.71.82-1.079,1.233q-.852.969-1.724,1.937c-.581.645-1.291,1.446-1.937,2.162-.329.374-.645.749-1.007,1.117-.7.781-1.421,1.562-2.137,2.336q-.686.756-1.395,1.511-.988,1.065-1.982,2.117c-.42.452-.846.9-1.292,1.349q-1.1,1.162-2.221,2.324c-.362.381-.73.762-1.111,1.142-.645.711-1.362,1.414-2.06,2.118q-.88.909-1.788,1.82c-.426.432-.853.865-1.292,1.291q-1.059,1.065-2.118,2.111l-2.195,2.156-.646.645-2.841,2.744-.846.916c-.781.755-1.569,1.5-2.357,2.24l-1.607,1.511c-.582.548-1.163,1.09-1.75,1.626s-1.234,1.156-1.854,1.717c-.716.646-1.439,1.33-2.163,1.975-.374.355-.749.691-1.123,1.027-.982.891-1.937,1.781-2.951,2.659l-.549.491q-1.434,1.29-2.88,2.582l-1.039.91-3.229,2.84-.1.084c-1.247,1.084-2.506,2.162-3.765,3.227s-2.447,2.085-3.68,3.118l-.31.265-3.035,2.537-1.111.884-3.177,2.621-.413.335-2.944,2.395q-1.227,1.006-2.474,2-1.665,1.342-3.351,2.685l-2.918,2.311-3.068,2.408q-2.537,1.995-5.1,3.97c-1.13.878-2.26,1.743-3.4,2.582q-6.315,4.84-12.734,9.618c-1.375,1.026-2.744,2.046-4.126,3.059l-4.139,3.054-3.306,2.42-1.776,1.291c5.024-26.368,11.623-52.466,17.163-78.75q7.749-36.858,12.469-74.232A108.392,108.392,0,0,0,260.7,280.956a94.3,94.3,0,0,0,39.518-62.613c8.162-49.006-19.126-97.631-63.28-116.415A945.34,945.34,0,0,0,223.7,2.987h.22L225.9,3.1l2.189.155c.685.052,1.376.1,2.06.168l1.731.161c.923.084,1.846.181,2.763.284q1.725.194,3.442.426l1.027.136c.645.09,1.33.181,1.989.284.419.058.833.123,1.246.194l1.207.187q4.242.684,8.44,1.569c.645.129,1.259.265,1.885.407s1.33.3,1.995.452c.782.181,1.57.368,2.351.562l1.937.491c.465.116.936.239,1.4.368l1.137.3,1.588.439h.032l2.047.594q1.039.3,2.054.646c.645.187,1.252.387,1.872.587.51.155,1.021.323,1.531.49l1.549.516q1.8.6,3.591,1.252l1.582.574,1.782.646q6.082,2.324,11.971,5.041c1.292.587,2.538,1.194,3.8,1.8,1.937.943,3.81,1.937,5.689,2.9l1.859,1c.646.336,1.234.646,1.847,1.02s1.227.691,1.84,1.039l1.66.962,1.937,1.175,1.6.962,2.118,1.291,1.679,1.078,1.756,1.155,1.744,1.175c.574.394,1.155.787,1.724,1.188s1.149.8,1.717,1.207,1.137.813,1.7,1.226l1.686,1.246,1.666,1.291,1.608,1.239.154.116,1.447,1.149.213.168,1.5,1.22c.93.755,1.847,1.523,2.757,2.292l.549.471q3.107,2.672,6.1,5.461L344.16,55.3q2.233,2.137,4.41,4.351,2.9,2.963,5.657,6.048c1.375,1.543,2.731,3.1,4.048,4.686q1.324,1.588,2.583,3.227c.433.536.852,1.078,1.292,1.62q1.291,1.627,2.492,3.279l1.169,1.588.077.116c.394.542.782,1.078,1.163,1.62l1.175,1.685c.394.568.775,1.13,1.156,1.7s.762,1.136,1.136,1.711.717,1.1,1.072,1.652l.11.174c.323.5.645,1.013.962,1.523l.155.252c.329.529.646,1.065.981,1.6s.7,1.168,1.053,1.756.691,1.175,1.026,1.769.678,1.188,1.008,1.782.646,1.194.988,1.794.645,1.2.962,1.8.646,1.207.943,1.814q.928,1.819,1.814,3.66t1.724,3.705q.84,1.858,1.634,3.744t1.608,3.957q1.071,2.761,2.053,5.57.7,2,1.349,4.035l.427,1.368c.258.839.51,1.685.755,2.53.181.6.349,1.207.517,1.821s.348,1.291.516,1.936a.513.513,0,0,1,.033.116c.12.431.236.882.348,1.356s.246.949.355,1.426.272,1.124.4,1.692c.11.451.213.91.31,1.362a1.34,1.34,0,0,1,0,.155c.129.548.245,1.1.355,1.646l.135.645.233,1.155c.084.426.168.846.245,1.291.11.562.213,1.13.31,1.7s.187,1.059.271,1.588.194,1.188.291,1.782l.1.645c.084.542.161,1.091.232,1.633s.168,1.24.246,1.853.148,1.213.219,1.82.149,1.336.213,2,.142,1.427.2,2.137.117,1.381.162,2.072c0,.355.052.716.071,1.078.039.471.064.942.09,1.42.033.645.065,1.246.091,1.872s.058,1.433.077,2.156A152.585,152.585,0,0,1,393.738,206.673Z" transform="translate(3751 3470)" fill="#ddf"/>
    <path id="Caminho_227" data-name="Caminho 227" d="M193.444,309.642c-22.09,0-44.122-10.328-62.634-29.531-17.777-18.455-30.523-43.539-34.094-67.132-4.791-31.681,5.637-65.021,27.895-89.188a102.155,102.155,0,0,1,35.217-25.019,95.44,95.44,0,0,1,44.27-7.449c30.02,2.033,57.049,16.415,76.111,40.511a111.125,111.125,0,0,1,22.7,86.974,97.412,97.412,0,0,1-40.544,64.337,113.679,113.679,0,0,1-63.216,26.278C197.247,309.565,195.349,309.642,193.444,309.642ZM197.4,96.571a89.688,89.688,0,0,0-35.411,7.243,96.629,96.629,0,0,0-33.319,23.715c-21.141,22.954-31.046,54.6-26.474,84.651,3.4,22.489,15.6,46.475,32.621,64.123,18.92,19.63,41.617,29.448,63.926,27.634a108.058,108.058,0,0,0,60.187-25.071l.213-.168a91.975,91.975,0,0,0,38.388-60.819,105.693,105.693,0,0,0-21.6-82.668c-18.08-22.864-43.722-36.509-72.178-38.439Q200.548,96.57,197.4,96.571Z" transform="translate(3751 3470)" fill="#bb4500"/>
    <path id="Caminho_228" data-name="Caminho 228" d="M393.927,131.079a169.613,169.613,0,0,0-26.939-54.022,190.373,190.373,0,0,0-44.135-42.68A193.244,193.244,0,0,0,266.359,7.427a190.3,190.3,0,0,0-61.872-7.2,229.1,229.1,0,0,0-53.949,9.192,238.086,238.086,0,0,0-51.38,21.947A218.572,218.572,0,0,0,54.733,65.006a189.3,189.3,0,0,0-33.745,44.745A174.615,174.615,0,0,0,2.34,164.612a194.763,194.763,0,0,0,.646,63.995,187.134,187.134,0,0,0,21.954,60.25c10.977,19.5,24.821,37.316,39.892,53.815C80.71,360.055,98.074,376.044,116,391.284c18.054,15.389,36.806,29.971,55.641,44.436Q184.722,445.764,197.8,455.8a2.22,2.22,0,0,0,3.1.252c18.642-13.523,37.052-27.382,54.841-42.022a592.47,592.47,0,0,0,49.675-45.391,403.266,403.266,0,0,0,42.158-51.091,326.35,326.35,0,0,0,32.286-58.921c8.853-21.069,16.3-43.584,19.055-66.344A154.778,154.778,0,0,0,393.927,131.079Zm-.691,62.961c-1.53,11.3-4.52,22.392-7.852,33.288-12.959,42.4-35.191,81.236-63.68,115.112-28.412,33.766-62.105,62.651-97.129,89.3q-12.378,9.425-24.989,18.545c-36.16-27.853-72.92-55.158-106.175-86.5-31.64-29.816-61.44-64.227-76.769-105.481C2.437,220.08,1.513,176.289,14.77,137.669c11.952-34.824,35.514-64.827,64.843-86.8a230.516,230.516,0,0,1,99.343-42.4,200.146,200.146,0,0,1,56.39-1.756,184.208,184.208,0,0,1,59.012,17.338c36.1,17.544,66.67,46.6,84.375,82.778a154,154,0,0,1,15.42,56.559A149.758,149.758,0,0,1,393.236,194.04Z" transform="translate(3751 3470)" fill="#bb4500"/>
    <path id="Caminho_81" data-name="Caminho 81" d="M200.622,417.271c-1.524.68-3.074,1.409-4.645,2.071-4.012,1.7-7.978,2.351-10.411-1.226a44.085,44.085,0,0,1-3.1-4.528c-.368-.778-.486-2.1-.872-2.862-.747-1.492-1.48-2.513-2.7-1.468-.757.653-1.351,1.5-2.125,2.136a8.059,8.059,0,0,1-10.912-.668c-2.689-2.84-4.7-5.82-4.755-9.691a41.369,41.369,0,0,1,.765-5.966c.1-.71.571-2.032.582-2.73,0-.657.433-1.04,0-1.41a2.274,2.274,0,0,0-1.944-.223,21.192,21.192,0,0,0-3.017,1.633,12.093,12.093,0,0,1-7.466,1.371c-5.137-.577-8.733-3.705-8.591-8.875a27.353,27.353,0,0,1,.756-4.815,5.8,5.8,0,0,0,.381-1.524c-.048-.651.882-1.511.452-1.963a1.861,1.861,0,0,0-1.589-.16,12.541,12.541,0,0,0-1.848,1.062,62.508,62.508,0,0,1-6.888,3.48c-6.9,2.535-12.411-1.244-12.781-8.717a28.261,28.261,0,0,1,.564-5.129,9.973,9.973,0,0,0,.471-2.076,2.382,2.382,0,0,0-.944-1.7,2.946,2.946,0,0,0-1.969.22c-.338.118-1.088,2.323-1.353,2.658-2.816,3.571-6.188,3.565-10.376,4.767a5.868,5.868,0,0,1-.837.173c-5.819.852-9.8-2.375-10.095-8.326a23.892,23.892,0,0,1,.844-8.149,13.416,13.416,0,0,0,.571-3.4,1.755,1.755,0,0,0-2.731-1.551c-.842.526-1.547,1.287-2.39,1.822a57.153,57.153,0,0,1-5.514,3.278,9.488,9.488,0,0,1-6.305.38c-3.244-.692-5.166-2.574-5.417-6.8a15.347,15.347,0,0,1,3.882-10.734,3.569,3.569,0,0,1,2.62-1.262,4.619,4.619,0,0,0,3.619-2.053,3.2,3.2,0,0,0,.539-1.951,1.792,1.792,0,0,0-1.88-1.47c-.96-.012-2.517,1.42-3.363,1.847-1.519.762-2.446-.174-3.964-1.136a6.593,6.593,0,0,1-3.28-4.834c-.475-3.92.345-7.462,3.264-10.323A17.348,17.348,0,0,1,86.146,311.5c3.107-.38,6.262-.324,9.392-.449.57-.019,1.152.1,1.708.033a2.035,2.035,0,0,0,1.888-2.737c-.933-2.172-.2-3.983.712-5.773a26.44,26.44,0,0,1,10.513-11.127,13.505,13.505,0,0,1,4.421-1.522c4.719-.828,7.233.436,9.645,4.579,2.708,4.663,3.222,4.84,7.369,1.575a19.172,19.172,0,0,1,11.482-4.19c3.154-.124,6.32-.339,9.4.429a20.512,20.512,0,0,1,5.539,2.161,7.793,7.793,0,0,1,4.028,7.171,9.045,9.045,0,0,0-.01,2.153,3.145,3.145,0,0,0,1,1.771,1.825,1.825,0,0,0,2.328-.444,6.12,6.12,0,0,0,.617-.6c3.592-4.289,8.376-4.7,13.349-3.879a18.309,18.309,0,0,1,9.144,4.494,11.168,11.168,0,0,1,4.049,8.708c.042,4.824.081,4.858,4.54,6.123a35.217,35.217,0,0,1,14.446,8.182,15.43,15.43,0,0,1,2.984,3.639c1.722,3.007,1.322,5.375-1.068,7.845-.5.515-1.117.918-1.594,1.441a2.26,2.26,0,0,0,.345,3.693c.834.558,1.761.955,2.638,1.449a28.773,28.773,0,0,1,7.187,5.42,17.947,17.947,0,0,1,2.636,3.388,7.149,7.149,0,0,1-.581,8.487c-.71.9-1.524,1.724-2.281,2.59a4.759,4.759,0,0,0-.557,5.992c.87,1.489,1.865,2.907,2.785,4.364s1.9,2.9,2.669,4.433a12.081,12.081,0,0,1,.963,3.281,2.714,2.714,0,0,1-1.692,3.164,34.937,34.937,0,0,1-3.631,1.3c-1.1.335-2.248.479-3.313.882-2.576.961-3.389,3.032-2.143,5.545a20.215,20.215,0,0,0,1.9,2.874c.757,1.048,1.631,2.018,2.371,3.074,2.808,3.994,2.736,6.908-.439,10.54-3.661,4.188-8.139,6.766-13.884,6.56-1.13-.043-2.288.249-3.407.123A20.89,20.89,0,0,1,200.622,417.271Z" transform="translate(3820.814 3219.523)" fill="#bb4500" fill-rule="evenodd"/>
    <path id="Caminho_82" data-name="Caminho 82" d="M76.736,357.895c5.143,1.894,9.938,1.244,14.909-1.847-.034,2.357-.045,3.888-.088,5.409a14.184,14.184,0,0,0,1.715,7.478A10.259,10.259,0,0,0,101,374.45,17.761,17.761,0,0,0,111.027,373c1.411-.609,2.813-1.21,4.521-1.938.247.951.416,1.6.578,2.258a32.515,32.515,0,0,0,.861,3.333c2.545,6.765,7.644,9.787,15.381,7.974a52.283,52.283,0,0,0,5.52-1.982c.143.907.3,1.666.376,2.439.749,8.12,4.621,11.832,12.767,12a60.918,60.918,0,0,0,6.495-.544c.885,1.042.362,2.381.348,3.584a18.841,18.841,0,0,0,2.743,9.852,12.317,12.317,0,0,0,7.429,6.11,11.374,11.374,0,0,0,8.711-.777c.853-.451,1.707-.925,2.676-1.445.806,1.383,1.471,2.645,2.253,3.838a12.274,12.274,0,0,0,10.385,5.848,9.818,9.818,0,0,0,5.332-1.318c.979-.56,1.927-1.178,2.825-1.725,1.048.589.614,1.318.388,1.907a72.687,72.687,0,0,1-7.583,14.005,118.41,118.41,0,0,1-11.6,14.923c-6.6,6.927-14,12.742-22.764,16.588a53.57,53.57,0,0,1-23.737,4.627,122.875,122.875,0,0,1-22.887-2.9A67.568,67.568,0,0,1,88.8,459.123c-7.279-4.973-12.748-11.458-17.321-18.841-5.277-8.508-7.546-18.006-8.138-27.889a112.049,112.049,0,0,1,2.988-33.01A56.165,56.165,0,0,1,76.736,357.895Zm20.034,38.9c-.046-.5-.091-1.215-.21-1.924a4.919,4.919,0,0,0-3.195-4.234,5.9,5.9,0,0,0-6.016,1.159c-2.265,1.935-3.19,6.977-1.774,9.587a4.783,4.783,0,0,0,4.933,2.705C93.9,403.821,96.635,400.725,96.771,396.8Zm55.455,22.462c-.4,3.294,1.968,7.029,4.626,7.312s6.07-2.165,6.416-4.592c.476-3.3-1.772-6.644-4.779-7.113A5.21,5.21,0,0,0,152.226,419.261Z" transform="translate(3821.056 3219.726)" fill="#f6fff7" fill-rule="evenodd"/>
    <path id="Caminho_84" data-name="Caminho 84" d="M94.66,530.361c0-4.791,1-9.518,1.842-14.277a13.15,13.15,0,0,1,5.733.689,110.187,110.187,0,0,0,26.542,4.032,34,34,0,0,0,8.92-.556,87.371,87.371,0,0,1,12.675-1.754c3.23-.236,6.415-1.005,9.64-1.544,1.342,2.64,3.341,11.16,3.644,15.7-10.91,3.968-22.164,4.646-33.6,3.32q-14.429-1.676-28.826-3.506C99.01,532.2,96.659,532.166,94.66,530.361Z" transform="translate(3821.056 3219.726)" fill="#fff9e9" fill-rule="evenodd"/>
    <path id="Caminho_85" data-name="Caminho 85" d="M97.272,511.414a86.228,86.228,0,0,1,1.842-12.188c6.758.843,13.1,1.547,19.416,2.438a61.476,61.476,0,0,0,18.709-.039,17.891,17.891,0,0,1,2.543-.311c5.536-.089,11.063-.153,16.793-.218,1.4,3.42,1.949,7.093,2.906,10.873a10.389,10.389,0,0,1-2.04,1.354,23.132,23.132,0,0,1-6.643,1.43,84.1,84.1,0,0,0-11.426,1.36,52.521,52.521,0,0,1-14.85.753c-8.842-.637-17.421-2.639-25.976-4.829A6.264,6.264,0,0,1,97.272,511.414Z" transform="translate(3821.056 3219.726)" fill="#ffb764" fill-rule="evenodd"/>
    <path id="Caminho_86" data-name="Caminho 86" d="M93.149,546.943a56.512,56.512,0,0,1,.822-11.826c1.975.322,3.763.661,5.571.9,8.2,1.07,16.39,2.247,24.615,3.114,5.946.631,11.94,1.075,17.924,1.151a64.351,64.351,0,0,0,17.753-2.384,13.241,13.241,0,0,1,4.394-.764c.216.279.374.383.386.506,1.15,8.439.407,8.156-6.4,10.538a45.416,45.416,0,0,1-8.739,1.947c-9.934,1.369-19.9,1.147-29.889.507A182.629,182.629,0,0,1,97.5,548.111C96.132,547.845,94.8,547.384,93.149,546.943Z" transform="translate(3821.056 3219.726)" fill="#ffb764" fill-rule="evenodd"/>
    <path id="Caminho_87" data-name="Caminho 87" d="M246.192,431.224a4.72,4.72,0,0,1-.138,4.4c-.392.927-.929,1.791-1.3,2.718a1.773,1.773,0,0,0,.511,2.313,2.624,2.624,0,0,0,1.956.174c1.34-.464,2.579-1.227,3.9-1.741a13.5,13.5,0,0,1,2.357-.515c1.2.89.9,1.91.492,2.8a7.739,7.739,0,0,1-3.555,3.606c-.878.473-1.787.889-2.658,1.387a1.852,1.852,0,0,0-1.143,2.085,2.739,2.739,0,0,0,1.287,1.54c1.147.561,2.435.807,3.608,1.319,1,.44,2.134.828,2.417,2.116-.981,1.453-2.585,1.162-3.9,1.594-.937.3-1.969.35-2.89.683a1.908,1.908,0,0,0-.9,2.864c.527.848,1.212,1.6,1.747,2.442a9.208,9.208,0,0,1,.63,1.548c-1.5,1.875-3.205,2.112-5.385,1.413a20.617,20.617,0,0,1-9.55-6.233,5.254,5.254,0,0,1-.789-1.013c-3.18-6.281-6.3-12.568-5.262-20a14.164,14.164,0,0,1,1.721-5.281,10.4,10.4,0,0,1,1.432-1.574c2.725,1.293,3.6,3.726,4.451,6.166.328.939.435,1.966.83,2.858a1.64,1.64,0,0,0,2.828.093,22.119,22.119,0,0,0,.951-2.371C241.111,433.591,242.7,432.211,246.192,431.224Z" transform="translate(3821.056 3219.726)" fill="#f6fff7" fill-rule="evenodd"/>
    <path id="Caminho_88" data-name="Caminho 88" d="M21.407,397.015a17.3,17.3,0,0,1,8.535,7.332c.434.737.71,1.567,1.127,2.32a1.971,1.971,0,0,0,2.088,1.187c1.021-.174,1.327-.965,1.355-1.889a21.059,21.059,0,0,1,0-2.571,6.734,6.734,0,0,1,6.57-5.651,1.833,1.833,0,0,1,2.008,1.781,17.9,17.9,0,0,1-.505,5.1c-1.089,3.406-2.491,6.717-3.82,10.04-.646,1.613-1.459,3.113-3.239,3.822-.84.336-1.059,1.171-1.281,2.071a12.773,12.773,0,0,1-11.733,9.505,5,5,0,0,1-1.426-.456c.282-.989.5-1.914.831-2.81a16.967,16.967,0,0,0,.91-1.93,3.251,3.251,0,0,0-.15-2c-.444-.885-1.394-.865-2.262-.661-.827.2-1.621.593-2.453.708a6.762,6.762,0,0,1-4.943-.781c-.537-.373-1.263-1.121-1.188-1.593a2.846,2.846,0,0,1,1.325-1.972,23.073,23.073,0,0,1,3.7-.7,1.74,1.74,0,0,0,.7-2.8,12.79,12.79,0,0,0-1.409-.9,15.567,15.567,0,0,1-2.059-1.5,2.263,2.263,0,0,1-.772-2.691,2.75,2.75,0,0,1,2.512-2.024,17.347,17.347,0,0,1,3.768.538,10.551,10.551,0,0,1,2.319,1.073,1.814,1.814,0,0,0,2.339-.286,1.864,1.864,0,0,0,.164-2.361c-1-2.045-2.024-4.091-2.892-6.2C20.983,399.39,21.1,399.345,21.407,397.015Z" transform="translate(3821.056 3219.726)" fill="#f6fff7" fill-rule="evenodd"/>
    <path id="Caminho_89" data-name="Caminho 89" d="M154.264,488.271c1.259,2.694,1.113,5.432,1.676,8.27a11.35,11.35,0,0,1-2.489.805c-1.846.117-3.706-.029-5.551.056-4.259.2-8.519.44-12.773.742-3.832.278-7.645.7-11.5.219-5.789-.723-11.6-1.3-17.4-1.95a17.583,17.583,0,0,1-6.257-1.6c-.031-2.982.772-5.71,1.221-8.715a8.006,8.006,0,0,1,2.118-.025c10.305,2.888,20.853,2.625,31.394,2.549a59.15,59.15,0,0,1,6.8.3,25.866,25.866,0,0,0,8.068-.106C151.083,488.5,152.635,488.445,154.264,488.271Z" transform="translate(3821.056 3219.726)" fill="#fff9e9" fill-rule="evenodd"/>
    <path id="Caminho_90" data-name="Caminho 90" d="M153.5,484.057a26.368,26.368,0,0,1-9.864,1.248c-3.966-.235-7.947-.5-11.917-.42-7.413.148-14.8.1-22.115-1.256-2.48-.465-5.04-.768-7.463-2.3.521-3.2.38-6.488,1.967-9.768,15.295,4.113,30.658,6.271,46.515,3.4A47.613,47.613,0,0,1,153.5,484.057Z" transform="translate(3821.056 3219.726)" fill="#ffb764" fill-rule="evenodd"/>
    <path id="Caminho_91" data-name="Caminho 91" d="M59.43,393.252c-2.357-.729-3.521-2.724-4.554-4.753a27.79,27.79,0,0,1-2.827-11.215,28.485,28.485,0,0,1,.924-9.414,13.147,13.147,0,0,1,3.017-5.641,4.585,4.585,0,0,1,5.086-1.253c3.7,1.192,5.806,4.893,4.442,8.492A94.869,94.869,0,0,0,60.4,391.251a4.78,4.78,0,0,1-.34,1.24C59.96,392.749,59.71,392.928,59.43,393.252Z" transform="translate(3821.056 3219.726)" fill="#f6fff7" fill-rule="evenodd"/>
    <path id="Caminho_93" data-name="Caminho 93" d="M194.155,441.889c2.237-3.705,4.153-6.7,5.88-9.813,1.665-2.982,3.123-6.078,4.7-9.194a16.319,16.319,0,0,1,7.2,1.031c2.9,1.079,3.863,3.114,3.128,6.165a8.965,8.965,0,0,1-.984,2.37,14.056,14.056,0,0,1-4.288,4.739C205.333,440.25,200.361,441.679,194.155,441.889Z" transform="translate(3821.056 3219.726)" fill="#fff6f9" fill-rule="evenodd"/>
    <path id="Caminho_95" data-name="Caminho 95" d="M84.3,399.911c-6.431-3.418-14.684-2.074-18.846,4.218-3,4.544-2.177,11.184.821,15.7a12.585,12.585,0,0,0,7.946,6.818c7.172,1.874,13.517-2.352,16.38-8.834C93.423,411.434,90.273,403.082,84.3,399.911Z" transform="translate(3821.056 3219.726)" fill="#ffe8aa" fill-rule="evenodd"/>
    <path id="Caminho_96" data-name="Caminho 96" d="M180.949,431.943a12.615,12.615,0,0,0-11.545-7.522,14.871,14.871,0,0,0-8.13.889c-7.875,3.3-9.166,13.4-4.392,19.8,4.319,5.8,12.794,7.956,19,3.831A13.725,13.725,0,0,0,180.949,431.943Z" transform="translate(3821.056 3219.726)" fill="#ffe8aa" fill-rule="evenodd"/>
    <path id="Caminho_97" data-name="Caminho 97" d="M69.045,362.587c1.56-2.585,2.886-4.786,4.117-6.818-.074-.4-.051-.567-.128-.669-3.635-5.439-2.751-10.9-.073-16.365.5-1.029,1.108-2,1.744-3.143-.785-.677-1.531-1.32-2.277-1.955a10.561,10.561,0,0,1-3.733-7.523,15.117,15.117,0,0,1,4.022-11.907c4.5-4.773,10.2-6.69,16.55-6.952,1.552-.063,3.119.1,4.456.156.429-.393.776-.552.809-.771,1.108-6.632,4.971-11.5,9.848-15.728a26.7,26.7,0,0,1,3.1-2.3,17.37,17.37,0,0,1,8.893-2.777,11.079,11.079,0,0,1,9.672,4.551c.781,1.005,1.486,2.056,2.233,3.1a8.663,8.663,0,0,0,1.282-.63c8.227-6.111,17.33-5.947,26.581-3.493a12.888,12.888,0,0,1,8.739,7.708c.224.517.488,1.018.683,1.427,1.062.647,1.734-.146,2.459-.445,8.106-3.4,18.428-.959,24.6,6.077a12.831,12.831,0,0,1,3.187,6.954c.173,1.415.345,2.838.535,4.434,1.079.411,2.126.82,3.183,1.188a40.276,40.276,0,0,1,14.248,8.519,20.992,20.992,0,0,1,2.879,3.182c2.924,4.085,3,8.117.338,12.445-.225.368-.466.719-.845,1.294a20.4,20.4,0,0,0,2.235,1.79,27.526,27.526,0,0,1,6.857,5.8,18.58,18.58,0,0,1,3.163,5.06,10.528,10.528,0,0,1-1.537,10.6c-.941,1.25-1.968,2.422-3.1,3.812.886,1.426,1.7,2.759,2.52,4.085,1.061,1.7,2.214,3.353,3.176,5.119a14.424,14.424,0,0,1,1.378,3.607c1.053,4.438-.359,7.176-4.579,8.913-1.179.487-2.461.708-3.693,1.094-.8.248-1.572.578-2.551.941.549.906.941,1.658,1.426,2.34.755,1.045,1.609,2.02,2.364,3.073,3.856,5.382,3.656,10.337-.625,15.314a22.747,22.747,0,0,1-6.268,5.171c-.845.467-1.654,1.025-2.5,1.558a5.394,5.394,0,0,0,.683.8c1.768,1.288,3.36,2.685,3.7,5.048a12,12,0,0,1-1.369,7.924,19.448,19.448,0,0,1-8.335,7.85,29.759,29.759,0,0,1-13.984,3.522c-1.135-.02-2.268-.088-3.6-.139-.807.918-1.686,1.851-2.487,2.844A81.583,81.583,0,0,1,161.7,470.756a6.2,6.2,0,0,0-.889.751,7.352,7.352,0,0,0,1.58,1.085,56.052,56.052,0,0,0,32.467,1.239A101.408,101.408,0,0,0,223.6,461.79a15.559,15.559,0,0,0,5.023-4.433c-.91-2.287-1.889-4.659-2.8-7.045-2.006-5.212-2.854-10.535-1.521-16.077a14.982,14.982,0,0,1,2.861-6.211c2.067-2.476,4.714-2.742,7.1-.561a53.667,53.667,0,0,1,3.747,4.223,30.106,30.106,0,0,1,2.705-2.213,15.427,15.427,0,0,1,3.767-1.959c3.109-.871,5.344.7,5.843,3.928.157.98.118,1.986.186,3.168,1.134.044,2.22.078,3.3.127,2.454.112,3.648,1.108,4.205,3.488a7.648,7.648,0,0,1-1.637,6.472c-.753,1.019-1.624,1.935-2.593,3.077.965.832,1.865,1.489,2.638,2.272,2.654,2.69,2.222,5.663-1.072,7.354-1.117.571-2.333.958-3.528,1.444a38.723,38.723,0,0,1,.661,4.742c.03,2.36-.625,2.949-2.75,3.768-4.966,1.92-9.241.035-13.365-2.425a58.749,58.749,0,0,1-5.265-3.979c-1.588,1.2-3.09,2.509-4.753,3.542-12.177,7.555-25.235,12.734-39.494,14.549-9.253,1.182-18.186-.261-26.934-3.31-1.449-.506-2.9-1.029-4.762-1.691a9.26,9.26,0,0,0,.087,2.37c2.327,6.535,3.3,13.362,4.624,20.145,1.733,8.9,3.964,17.687,5.886,26.54,1.032,4.773,1.99,9.577,2.744,14.413.488,3.114.713,6.325-.646,9.36-.613,1.368-76.241,3.587-76.659,3.293a4.442,4.442,0,0,1-1.9-3.685,28.263,28.263,0,0,1,.069-3.888c.911-10.766,2.452-21.451,4.162-32.121,1.325-8.253,2.593-16.5,3.9-24.745.472-2.963.983-5.916,1.513-9.122-1.068-.279-1.845-.53-2.642-.692a44.627,44.627,0,0,1-9.323-3.087,92.2,92.2,0,0,1-31.077-22.478c-6.856-7.537-13.569-15.175-19.185-23.737-.069-.109-.221-.156-.356-.243-1.111-.207-1.441.771-1.864,1.418-2.477,3.835-6.294,5.227-10.476,5.958a8.535,8.535,0,0,1-2.549.033c-2.842-.348-3.972-1.562-4.217-4.455a17.151,17.151,0,0,1,.068-1.962c-1.149-.3-2.235-.521-3.268-.872a15.409,15.409,0,0,1-3.53-1.455c-2.824-1.862-3.352-4.986-1.44-7.876.465-.7,1.065-1.319,1.686-2.073-1.641-2.659-2.032-5.344-.111-8.046,1.415-1.976,2.358-2.456,7.585-3.556a17.171,17.171,0,0,1-.531-2.428,26.73,26.73,0,0,1-.191-5.142c.3-2.617,2.058-3.712,4.609-2.975a11.863,11.863,0,0,1,3.431,1.689c1.406.972,2.658,2.166,3.979,3.266.636.532,1.273,1.073,2.011,1.691.9-.981,1.653-1.828,2.431-2.658a10.23,10.23,0,0,1,6.892-3.066c3.166-.255,5.435,1.676,5.96,4.9a16.354,16.354,0,0,1-.662,7.263c-1.649,5.521-3.7,10.888-7.282,15.671.551,2.536,2.126,4.6,3.612,6.675a184.886,184.886,0,0,0,17.444,20.722,107.209,107.209,0,0,0,10.486,9.52,81.612,81.612,0,0,0,20.379,11.721,36.537,36.537,0,0,0,6.157,1.7c1.142.249,1.281.025,2.521-2.057a23.32,23.32,0,0,0-2.416-1.51,67.157,67.157,0,0,1-15.727-10.361A61.3,61.3,0,0,1,63.4,431.683a75.752,75.752,0,0,1-3.929-27.627c.077-2,.155-4.007.233-6.027-7.961-3.7-10.111-10.832-11.115-18.438a28.668,28.668,0,0,1,1.064-13.25,21.934,21.934,0,0,1,2.634-5.385c3.3-4.688,9.074-5.357,13.483-1.674C66.794,360.166,67.725,361.258,69.045,362.587Zm131.179,54.29a15.361,15.361,0,0,0,2.941.924c1.115.125,2.262-.158,3.4-.123,5.727.214,10.191-2.357,13.841-6.54,3.166-3.62,3.237-6.516.439-10.506-.738-1.061-1.6-2.02-2.364-3.065a21.5,21.5,0,0,1-1.893-2.865c-1.242-2.505-.432-4.57,2.136-5.527,1.062-.393,2.211-.537,3.3-.88A35.513,35.513,0,0,0,225.643,387a2.709,2.709,0,0,0,1.688-3.153,11.663,11.663,0,0,0-.961-3.272,49.757,49.757,0,0,0-2.66-4.419c-.909-1.46-1.9-2.866-2.777-4.349a4.735,4.735,0,0,1,.555-5.973c.756-.864,1.566-1.676,2.274-2.582a7.128,7.128,0,0,0,.579-8.462,17.854,17.854,0,0,0-2.628-3.377,28.882,28.882,0,0,0-7.165-5.4c-.874-.484-1.8-.889-2.629-1.445a2.252,2.252,0,0,1-.345-3.682c.483-.53,1.091-.924,1.589-1.437,2.383-2.463,2.783-4.823,1.065-7.821A15.748,15.748,0,0,0,211.253,328a35.065,35.065,0,0,0-14.4-8.157c-4.446-1.252-4.485-1.287-4.526-6.1a11.106,11.106,0,0,0-4.037-8.681,18.261,18.261,0,0,0-9.116-4.48c-4.957-.814-9.727-.409-13.307,3.867a7.106,7.106,0,0,1-.616.6,1.818,1.818,0,0,1-2.321.442,3.1,3.1,0,0,1-.994-1.766,8.514,8.514,0,0,1,.01-2.145,7.8,7.8,0,0,0-4.015-7.149,20.41,20.41,0,0,0-5.523-2.155c-3.069-.765-6.225-.552-9.369-.427a19.105,19.105,0,0,0-11.446,4.176c-4.133,3.255-4.645,3.071-7.346-1.57-2.4-4.13-4.91-5.39-9.615-4.565a13.66,13.66,0,0,0-4.407,1.517,26.359,26.359,0,0,0-10.48,11.093c-.9,1.791-1.64,3.6-.709,5.754a2.029,2.029,0,0,1-1.882,2.728c-.562.068-1.134-.052-1.7-.033-3.128.125-6.274.069-9.363.449a17.355,17.355,0,0,0-10.242,4.935c-2.909,2.852-3.727,6.383-3.253,10.291a6.513,6.513,0,0,0,3.27,4.819c1.512.959,2.929.613,4.435-.156a6.387,6.387,0,0,1,2.869-.553,1.8,1.8,0,0,1,1.874,1.465,3.214,3.214,0,0,1-.538,1.945,4.651,4.651,0,0,1-3.608,2.047,3.561,3.561,0,0,0-2.612,1.258,15.3,15.3,0,0,0-3.87,10.7c.251,4.21,2.166,6.078,5.4,6.776a9.5,9.5,0,0,0,6.285-.379,55.812,55.812,0,0,0,5.5-3.268c.84-.533,1.543-1.292,2.382-1.816A1.752,1.752,0,0,1,96.7,351a13.374,13.374,0,0,1-.569,3.385,23.834,23.834,0,0,0-.841,8.124c.289,5.941,4.254,9.149,10.063,8.3a5.637,5.637,0,0,0,.834-.172c4.176-1.2,8.078-2.874,10.884-6.434.265-.334.471-.85.808-.968a2.892,2.892,0,0,1,1.964-.219,2.358,2.358,0,0,1,.94,1.7,9.873,9.873,0,0,1-.469,2.07,27.4,27.4,0,0,0-.563,5.113c.369,7.45,5.861,11.217,12.741,8.69a59.7,59.7,0,0,0,6.867-3.468,12.465,12.465,0,0,1,1.842-1.059,1.855,1.855,0,0,1,1.584.159,3.215,3.215,0,0,1,.732,1.855c.044.526-.382,1.066-.493,1.619a31.33,31.33,0,0,0-.869,5.068c-.134,5.146,2.489,8.007,7.61,8.582a12.048,12.048,0,0,0,7.443-1.367,23.051,23.051,0,0,1,3.008-1.628,2.291,2.291,0,0,1,1.938.223,2.7,2.7,0,0,1,.568,1.9,16.778,16.778,0,0,1-.5,2.085,36.051,36.051,0,0,0-.645,5.552,14.675,14.675,0,0,0,3.979,10.194,8.033,8.033,0,0,0,10.877.667c.771-.634,1.363-1.479,2.119-2.13a2.213,2.213,0,0,1,3.562.818c.384.768.586,1.619.954,2.4A27.436,27.436,0,0,0,185,415.887a8.364,8.364,0,0,0,10.575,3.013C197.168,418.274,198.713,417.555,200.224,416.877ZM76.738,357.9a56.3,56.3,0,0,0-10.42,21.487,112.052,112.052,0,0,0-2.988,33.011c.591,9.883,2.861,19.38,8.137,27.888,4.574,7.383,10.043,13.86,17.322,18.842a67.289,67.289,0,0,0,23.249,10.538,122.2,122.2,0,0,0,22.886,2.9,53.588,53.588,0,0,0,23.737-4.626c8.772-3.846,16.169-9.661,22.764-16.588a117.517,117.517,0,0,0,11.6-14.923,72.75,72.75,0,0,0,7.583-14.006c.233-.58.659-1.317-.389-1.906-.889.547-1.838,1.165-2.825,1.725a9.964,9.964,0,0,1-5.332,1.317,12.273,12.273,0,0,1-10.385-5.848c-.781-1.193-1.446-2.455-2.253-3.837-.969.527-1.815.994-2.676,1.444a11.331,11.331,0,0,1-8.71.777,12.315,12.315,0,0,1-7.43-6.11,18.813,18.813,0,0,1-2.742-9.851c.013-1.2.536-2.535-.349-3.584a63.532,63.532,0,0,1-6.494.543c-8.147-.168-12.019-3.872-12.768-12-.067-.772-.232-1.532-.376-2.438a50.25,50.25,0,0,1-5.52,1.981c-7.736,1.814-12.835-1.217-15.381-7.973a32.324,32.324,0,0,1-.861-3.334c-.169-.653-.339-1.307-.578-2.258-1.7.729-3.109,1.329-4.52,1.938A17.751,17.751,0,0,1,101,374.452a10.28,10.28,0,0,1-7.729-5.516,14.2,14.2,0,0,1-1.715-7.477c.043-1.53.053-3.053.087-5.41C86.676,359.141,81.881,359.791,76.738,357.9Zm27.81,195.114c-2.674-.292-5.336-.689-8.2-1.062C95.408,553.78,120.026,554.707,104.548,553.011Zm-9.889-22.649c2.007,1.8,4.35,1.839,6.57,2.121q14.409,1.823,28.825,3.506c11.436,1.326,22.682.647,33.6-3.32-.3-4.54-2.309-13.069-3.643-15.7-3.234.539-6.419,1.308-9.641,1.544a86.257,86.257,0,0,0-12.674,1.754,34.306,34.306,0,0,1-8.921.556,110.591,110.591,0,0,1-26.542-4.032A13.134,13.134,0,0,0,96.5,516.1C95.659,520.843,94.657,525.571,94.659,530.362Zm2.615-18.948a7.358,7.358,0,0,0,1.274.631c8.547,2.189,17.134,4.184,25.976,4.829a51.9,51.9,0,0,0,14.85-.753,84.1,84.1,0,0,1,11.426-1.36,23.1,23.1,0,0,0,6.643-1.43,11.492,11.492,0,0,0,2.04-1.354c-.958-3.78-1.5-7.453-2.906-10.873-5.73.073-11.257.13-16.793.219a16.537,16.537,0,0,0-2.543.311,61.765,61.765,0,0,1-18.709.038c-6.317-.891-12.658-1.6-19.416-2.438A86.118,86.118,0,0,0,97.273,511.414Zm-4.124,35.53c1.638.44,2.983.9,4.36,1.16a181.011,181.011,0,0,0,22.082,2.516c9.977.64,33.561.981,36.365,0,6.809-2.382,9.816-4.553,8.666-12.992-.012-.123-.162-.227-.386-.506a13.206,13.206,0,0,0-4.394.764,64.016,64.016,0,0,1-17.753,2.384c-5.984-.075-11.97-.52-17.925-1.151-8.224-.867-16.413-2.043-24.614-3.114-1.808-.234-3.6-.573-5.571-.9A57.154,57.154,0,0,0,93.149,546.944ZM246.194,431.225c-3.494.986-5.089,2.366-6.333,5.381a21.753,21.753,0,0,1-.952,2.371,1.644,1.644,0,0,1-2.828-.093c-.395-.9-.509-1.92-.83-2.858-.847-2.432-1.718-4.873-4.451-6.166a9.584,9.584,0,0,0-1.432,1.574,13.953,13.953,0,0,0-1.721,5.281c-1.042,7.437,2.082,13.716,5.263,20a5.246,5.246,0,0,0,.788,1.014,20.694,20.694,0,0,0,9.551,6.232c2.179.7,3.884.47,5.384-1.413A9.123,9.123,0,0,0,248,461c-.535-.847-1.22-1.6-1.747-2.442a1.906,1.906,0,0,1,.9-2.864c.93-.333,1.954-.383,2.89-.683,1.306-.424,2.91-.133,3.9-1.594-.283-1.288-1.42-1.676-2.417-2.116-1.173-.512-2.461-.758-3.608-1.319a2.743,2.743,0,0,1-1.287-1.54,1.845,1.845,0,0,1,1.144-2.085c.871-.5,1.779-.914,2.657-1.388a7.691,7.691,0,0,0,3.555-3.605c.4-.893.707-1.913-.492-2.8a14.162,14.162,0,0,0-2.356.515c-1.326.514-2.564,1.277-3.905,1.741a2.624,2.624,0,0,1-1.956-.174,1.767,1.767,0,0,1-.511-2.313c.368-.928.9-1.791,1.3-2.718A4.666,4.666,0,0,0,246.194,431.225ZM21.408,397.016c-.317,2.321-.433,2.374.117,3.689.876,2.106,1.892,4.152,2.892,6.205a1.864,1.864,0,0,1-.164,2.361,1.833,1.833,0,0,1-2.339.286,10.55,10.55,0,0,0-2.319-1.073,17.417,17.417,0,0,0-3.768-.538,2.75,2.75,0,0,0-2.512,2.024,2.263,2.263,0,0,0,.772,2.691,15.667,15.667,0,0,0,2.059,1.5,11.434,11.434,0,0,1,1.409.9,1.74,1.74,0,0,1-.7,2.8,22.235,22.235,0,0,0-3.7.7,2.855,2.855,0,0,0-1.326,1.971c-.075.464.65,1.221,1.188,1.594a6.723,6.723,0,0,0,4.943.781c.832-.115,1.626-.51,2.453-.708.86-.2,1.818-.224,2.262.661a3.249,3.249,0,0,1,.15,2,16.36,16.36,0,0,1-.91,1.93c-.326.888-.541,1.822-.831,2.81a5.581,5.581,0,0,0,1.426.456,12.783,12.783,0,0,0,11.733-9.505c.229-.892.44-1.735,1.281-2.071,1.78-.709,2.584-2.21,3.239-3.822,1.329-3.323,2.723-6.635,3.82-10.04a17.9,17.9,0,0,0,.505-5.1,1.832,1.832,0,0,0-2.008-1.781,6.741,6.741,0,0,0-6.57,5.651,24.935,24.935,0,0,0,0,2.571c-.02.933-.334,1.715-1.355,1.888a1.97,1.97,0,0,1-2.088-1.186c-.426-.745-.694-1.574-1.127-2.32A17.305,17.305,0,0,0,21.408,397.016Zm132.857,91.256c-1.621.175-3.173.229-4.677.54a25.9,25.9,0,0,1-8.068.1,58.994,58.994,0,0,0-6.8-.295c-10.541.075-21.089.347-31.394-2.549a8,8,0,0,0-2.118.024c-.449,3.005-1.252,5.734-1.221,8.716a17.371,17.371,0,0,0,6.257,1.6c5.8.65,11.61,1.227,17.4,1.95,3.859.477,7.672.051,11.5-.218,4.254-.3,8.514-.539,12.773-.743,1.845-.092,3.7.053,5.551-.055a10.733,10.733,0,0,0,2.489-.8C155.377,493.7,155.524,490.966,154.265,488.272Zm-.762-4.214a47.833,47.833,0,0,0-2.877-9.1c-15.857,2.868-31.219.71-46.514-3.4-1.579,3.28-1.439,6.569-1.968,9.767,2.431,1.536,4.983,1.847,7.464,2.3,7.313,1.363,14.7,1.4,22.114,1.256,3.97-.076,7.951.184,11.917.42A26.158,26.158,0,0,0,153.5,484.058ZM59.43,393.253a4.057,4.057,0,0,0,.638-.754,4.758,4.758,0,0,0,.34-1.239,94.867,94.867,0,0,1,5.117-21.783c1.365-3.608-.748-7.309-4.442-8.492A4.584,4.584,0,0,0,56,362.238a13.191,13.191,0,0,0-3.017,5.64,28.481,28.481,0,0,0-.924,9.415,27.783,27.783,0,0,0,2.828,11.214C55.909,390.529,57.073,392.523,59.43,393.253ZM194.154,441.89c6.206-.211,11.169-1.632,15.644-4.71a14.143,14.143,0,0,0,4.288-4.74,9.533,9.533,0,0,0,.984-2.37c.735-3.059-.224-5.094-3.128-6.164a16.419,16.419,0,0,0-7.2-1.032c-1.581,3.116-3.039,6.213-4.7,9.2C198.316,435.18,196.39,438.185,194.154,441.89Z" transform="translate(3821.056 3219.726)" fill="#bb4500" fill-rule="evenodd"/>
    <path id="Caminho_100" data-name="Caminho 100" d="M96.771,396.8c-.136,3.925-2.875,7.013-6.253,7.292a4.781,4.781,0,0,1-4.933-2.705c-1.416-2.609-.491-7.651,1.774-9.586a5.865,5.865,0,0,1,6.016-1.16,4.909,4.909,0,0,1,3.195,4.235C96.672,395.584,96.717,396.306,96.771,396.8Z" transform="translate(3821.056 3219.726)" fill="#bb4500" fill-rule="evenodd"/>
    <path id="Caminho_101" data-name="Caminho 101" d="M152.227,419.262a5.209,5.209,0,0,1,6.262-4.393c3.008.468,5.255,3.815,4.779,7.113-.345,2.427-3.774,4.866-6.416,4.592C154.194,426.3,151.824,422.555,152.227,419.262Z" transform="translate(3821.056 3219.726)" fill="#bb4500" fill-rule="evenodd"/>
    <path id="Caminho_102" data-name="Caminho 102" d="M69.045,362.587c1.56-2.585,2.886-4.786,4.117-6.818-.074-.4-.051-.567-.128-.669-3.635-5.439-2.751-10.9-.073-16.365.5-1.029,1.108-2,1.744-3.143-.785-.677-1.531-1.32-2.277-1.955a10.561,10.561,0,0,1-3.733-7.523,15.117,15.117,0,0,1,4.022-11.907c4.5-4.773,10.2-6.69,16.55-6.952,1.552-.063,3.119.1,4.456.156.429-.393.776-.552.809-.771,1.108-6.632,4.971-11.5,9.848-15.728a26.7,26.7,0,0,1,3.1-2.3,17.37,17.37,0,0,1,8.893-2.777,11.079,11.079,0,0,1,9.672,4.551c.781,1.005,1.486,2.056,2.233,3.1a8.663,8.663,0,0,0,1.282-.63c8.227-6.111,17.33-5.947,26.581-3.493a12.888,12.888,0,0,1,8.739,7.708c.224.517.488,1.018.683,1.427,1.062.647,1.734-.146,2.459-.445,8.106-3.4,18.428-.959,24.6,6.077a12.831,12.831,0,0,1,3.187,6.954c.173,1.415.345,2.838.535,4.434,1.079.411,2.126.82,3.183,1.188a40.276,40.276,0,0,1,14.248,8.519,20.992,20.992,0,0,1,2.879,3.182c2.924,4.085,3,8.117.338,12.445-.225.368-.466.719-.845,1.294a20.4,20.4,0,0,0,2.235,1.79,27.526,27.526,0,0,1,6.857,5.8,18.58,18.58,0,0,1,3.163,5.06,10.528,10.528,0,0,1-1.537,10.6c-.941,1.25-1.968,2.422-3.1,3.812.886,1.426,1.7,2.759,2.52,4.085,1.061,1.7,2.214,3.353,3.176,5.119a14.424,14.424,0,0,1,1.378,3.607c1.053,4.438-.359,7.176-4.579,8.913-1.179.487-2.461.708-3.693,1.094-.8.248-1.572.578-2.551.941.549.906.941,1.658,1.426,2.34.755,1.045,1.609,2.02,2.364,3.073,3.856,5.382,3.656,10.337-.625,15.314a22.747,22.747,0,0,1-6.268,5.171c-.845.467-1.654,1.025-2.5,1.558a5.394,5.394,0,0,0,.683.8c1.768,1.288,3.36,2.685,3.7,5.048a12,12,0,0,1-1.369,7.924,19.448,19.448,0,0,1-8.335,7.85,29.759,29.759,0,0,1-13.984,3.522c-1.135-.02-2.268-.088-3.6-.139-.807.918-1.686,1.851-2.487,2.844A81.583,81.583,0,0,1,161.7,470.756a6.2,6.2,0,0,0-.889.751,7.352,7.352,0,0,0,1.58,1.085,56.052,56.052,0,0,0,32.467,1.239A101.408,101.408,0,0,0,223.6,461.79a15.559,15.559,0,0,0,5.023-4.433c-.91-2.287-1.889-4.659-2.8-7.045-2.006-5.212-2.854-10.535-1.521-16.077a14.982,14.982,0,0,1,2.861-6.211c2.067-2.476,4.714-2.742,7.1-.561a53.667,53.667,0,0,1,3.747,4.223,30.106,30.106,0,0,1,2.705-2.213,15.427,15.427,0,0,1,3.767-1.959c3.109-.871,5.344.7,5.843,3.928.157.98.118,1.986.186,3.168,1.134.044,2.22.078,3.3.127,2.454.112,3.648,1.108,4.205,3.488a7.648,7.648,0,0,1-1.637,6.472c-.753,1.019-1.624,1.935-2.593,3.077.965.832,1.865,1.489,2.638,2.272,2.654,2.69,2.222,5.663-1.072,7.354-1.117.571-2.333.958-3.528,1.444a38.723,38.723,0,0,1,.661,4.742c.03,2.36-.625,2.949-2.75,3.768-4.966,1.92-9.241.035-13.365-2.425a58.749,58.749,0,0,1-5.265-3.979c-1.588,1.2-3.09,2.509-4.753,3.542-12.177,7.555-25.235,12.734-39.494,14.549-9.253,1.182-18.186-.261-26.934-3.31-1.449-.506-2.9-1.029-4.762-1.691a9.26,9.26,0,0,0,.087,2.37c2.327,6.535,3.3,13.362,4.624,20.145,1.733,8.9,3.964,17.687,5.886,26.54,1.032,4.773,1.99,9.577,2.744,14.413.488,3.114.713,6.325-.646,9.36-.613,1.368-3.782.623-3.228,1.808,2.2,4.687-74.7,7.807-72.262,2.709a9.448,9.448,0,0,0-1.169-1.224,4.442,4.442,0,0,1-1.9-3.685,28.263,28.263,0,0,1,.069-3.888c.911-10.766,2.452-21.451,4.162-32.121,1.325-8.253,2.593-16.5,3.9-24.745.472-2.963.983-5.916,1.513-9.122-1.068-.279-1.845-.53-2.642-.692a44.627,44.627,0,0,1-9.323-3.087,92.2,92.2,0,0,1-31.077-22.478c-6.856-7.537-13.569-15.175-19.185-23.737-.069-.109-.221-.156-.356-.243-1.111-.207-1.441.771-1.864,1.418-2.477,3.835-6.294,5.227-10.476,5.958a8.535,8.535,0,0,1-2.549.033c-2.842-.348-3.972-1.562-4.217-4.455a17.151,17.151,0,0,1,.068-1.962c-1.149-.3-2.235-.521-3.268-.872a15.409,15.409,0,0,1-3.53-1.455c-2.824-1.862-3.352-4.986-1.44-7.876.465-.7,1.065-1.319,1.686-2.073-1.641-2.659-2.032-5.344-.111-8.046,1.415-1.976,2.358-2.456,7.585-3.556a17.171,17.171,0,0,1-.531-2.428,26.73,26.73,0,0,1-.191-5.142c.3-2.617,2.058-3.712,4.609-2.975a11.863,11.863,0,0,1,3.431,1.689c1.406.972,2.658,2.166,3.979,3.266.636.532,1.273,1.073,2.011,1.691.9-.981,1.653-1.828,2.431-2.658a10.23,10.23,0,0,1,6.892-3.066c3.166-.255,5.435,1.676,5.96,4.9a16.354,16.354,0,0,1-.662,7.263c-1.649,5.521-3.7,10.888-7.282,15.671.551,2.536,2.126,4.6,3.612,6.675a184.886,184.886,0,0,0,17.444,20.722,107.209,107.209,0,0,0,10.486,9.52,81.612,81.612,0,0,0,20.379,11.721,36.537,36.537,0,0,0,6.157,1.7c1.142.249,1.281.025,2.521-2.057a23.32,23.32,0,0,0-2.416-1.51,67.157,67.157,0,0,1-15.727-10.361A61.3,61.3,0,0,1,63.4,431.683a75.752,75.752,0,0,1-3.929-27.627c.077-2,.155-4.007.233-6.027-7.961-3.7-10.111-10.832-11.115-18.438a28.668,28.668,0,0,1,1.064-13.25,21.934,21.934,0,0,1,2.634-5.385c3.3-4.688,9.074-5.357,13.483-1.674C66.794,360.166,67.725,361.258,69.045,362.587Zm131.179,54.29a15.361,15.361,0,0,0,2.941.924c1.115.125,2.262-.158,3.4-.123,5.727.214,10.191-2.357,13.841-6.54,3.166-3.62,3.237-6.516.439-10.506-.738-1.061-1.6-2.02-2.364-3.065a21.5,21.5,0,0,1-1.893-2.865c-1.242-2.505-.432-4.57,2.136-5.527,1.062-.393,2.211-.537,3.3-.88A35.513,35.513,0,0,0,225.643,387a2.709,2.709,0,0,0,1.688-3.153,11.663,11.663,0,0,0-.961-3.272,49.757,49.757,0,0,0-2.66-4.419c-.909-1.46-1.9-2.866-2.777-4.349a4.735,4.735,0,0,1,.555-5.973c.756-.864,1.566-1.676,2.274-2.582a7.128,7.128,0,0,0,.579-8.462,17.854,17.854,0,0,0-2.628-3.377,28.882,28.882,0,0,0-7.165-5.4c-.874-.484-1.8-.889-2.629-1.445a2.252,2.252,0,0,1-.345-3.682c.483-.53,1.091-.924,1.589-1.437,2.383-2.463,2.783-4.823,1.065-7.821A15.748,15.748,0,0,0,211.253,328a35.065,35.065,0,0,0-14.4-8.157c-4.446-1.252-4.485-1.287-4.526-6.1a11.106,11.106,0,0,0-4.037-8.681,18.261,18.261,0,0,0-9.116-4.48c-4.957-.814-9.727-.409-13.307,3.867a7.106,7.106,0,0,1-.616.6,1.818,1.818,0,0,1-2.321.442,3.1,3.1,0,0,1-.994-1.766,8.514,8.514,0,0,1,.01-2.145,7.8,7.8,0,0,0-4.015-7.149,20.41,20.41,0,0,0-5.523-2.155c-3.069-.765-6.225-.552-9.369-.427a19.105,19.105,0,0,0-11.446,4.176c-4.133,3.255-4.645,3.071-7.346-1.57-2.4-4.13-4.91-5.39-9.615-4.565a13.66,13.66,0,0,0-4.407,1.517,26.359,26.359,0,0,0-10.48,11.093c-.9,1.791-1.64,3.6-.709,5.754a2.029,2.029,0,0,1-1.882,2.728c-.562.068-1.134-.052-1.7-.033-3.128.125-6.274.069-9.363.449a17.355,17.355,0,0,0-10.242,4.935c-2.909,2.852-3.727,6.383-3.253,10.291a6.513,6.513,0,0,0,3.27,4.819c1.512.959,2.929.613,4.435-.156a6.387,6.387,0,0,1,2.869-.553,1.8,1.8,0,0,1,1.874,1.465,3.214,3.214,0,0,1-.538,1.945,4.651,4.651,0,0,1-3.608,2.047,3.561,3.561,0,0,0-2.612,1.258,15.3,15.3,0,0,0-3.87,10.7c.251,4.21,2.166,6.078,5.4,6.776a9.5,9.5,0,0,0,6.285-.379,55.812,55.812,0,0,0,5.5-3.268c.84-.533,1.543-1.292,2.382-1.816A1.752,1.752,0,0,1,96.7,351a13.374,13.374,0,0,1-.569,3.385,23.834,23.834,0,0,0-.841,8.124c.289,5.941,4.254,9.149,10.063,8.3a5.637,5.637,0,0,0,.834-.172c4.176-1.2,8.078-2.874,10.884-6.434.265-.334.471-.85.808-.968a2.892,2.892,0,0,1,1.964-.219,2.358,2.358,0,0,1,.94,1.7,9.873,9.873,0,0,1-.469,2.07,27.4,27.4,0,0,0-.563,5.113c.369,7.45,5.861,11.217,12.741,8.69a59.7,59.7,0,0,0,6.867-3.468,12.465,12.465,0,0,1,1.842-1.059,1.855,1.855,0,0,1,1.584.159,3.215,3.215,0,0,1,.732,1.855c.044.526-.382,1.066-.493,1.619a31.33,31.33,0,0,0-.869,5.068c-.134,5.146,2.489,8.007,7.61,8.582a12.048,12.048,0,0,0,7.443-1.367,23.051,23.051,0,0,1,3.008-1.628,2.291,2.291,0,0,1,1.938.223,2.7,2.7,0,0,1,.568,1.9,16.778,16.778,0,0,1-.5,2.085,36.051,36.051,0,0,0-.645,5.552,14.675,14.675,0,0,0,3.979,10.194,8.033,8.033,0,0,0,10.877.667c.771-.634,1.363-1.479,2.119-2.13a2.213,2.213,0,0,1,3.562.818c.384.768.586,1.619.954,2.4A27.436,27.436,0,0,0,185,415.887a8.364,8.364,0,0,0,10.575,3.013C197.168,418.274,198.713,417.555,200.224,416.877ZM76.738,357.9a56.3,56.3,0,0,0-10.42,21.487,112.052,112.052,0,0,0-2.988,33.011c.591,9.883,2.861,19.38,8.137,27.888,4.574,7.383,10.043,13.86,17.322,18.842a67.289,67.289,0,0,0,23.249,10.538,122.2,122.2,0,0,0,22.886,2.9,53.588,53.588,0,0,0,23.737-4.626c8.772-3.846,16.169-9.661,22.764-16.588a117.517,117.517,0,0,0,11.6-14.923,72.75,72.75,0,0,0,7.583-14.006c.233-.58.659-1.317-.389-1.906-.889.547-1.838,1.165-2.825,1.725a9.964,9.964,0,0,1-5.332,1.317,12.273,12.273,0,0,1-10.385-5.848c-.781-1.193-1.446-2.455-2.253-3.837-.969.527-1.815.994-2.676,1.444a11.331,11.331,0,0,1-8.71.777,12.315,12.315,0,0,1-7.43-6.11,18.813,18.813,0,0,1-2.742-9.851c.013-1.2.536-2.535-.349-3.584a63.532,63.532,0,0,1-6.494.543c-8.147-.168-12.019-3.872-12.768-12-.067-.772-.232-1.532-.376-2.438a50.25,50.25,0,0,1-5.52,1.981c-7.736,1.814-12.835-1.217-15.381-7.973a32.324,32.324,0,0,1-.861-3.334c-.169-.653-.339-1.307-.578-2.258-1.7.729-3.109,1.329-4.52,1.938A17.751,17.751,0,0,1,101,374.452a10.28,10.28,0,0,1-7.729-5.516,14.2,14.2,0,0,1-1.715-7.477C91.594,359.929,81.881,359.791,76.738,357.9ZM94.659,530.362c2.007,1.8,4.35,1.839,6.57,2.121q14.409,1.823,28.825,3.506c11.436,1.326,22.682.647,33.6-3.32-.3-4.54-2.309-13.069-3.643-15.7-3.234.539-6.419,1.308-9.641,1.544a86.257,86.257,0,0,0-12.674,1.754,34.306,34.306,0,0,1-8.921.556,110.591,110.591,0,0,1-26.542-4.032A13.134,13.134,0,0,0,96.5,516.1C95.659,520.843,94.657,525.571,94.659,530.362Zm2.615-18.948a7.358,7.358,0,0,0,1.274.631c8.547,2.189,17.134,4.184,25.976,4.829a51.9,51.9,0,0,0,14.85-.753,84.1,84.1,0,0,1,11.426-1.36,23.1,23.1,0,0,0,6.643-1.43,11.492,11.492,0,0,0,2.04-1.354c-.958-3.78-1.5-7.453-2.906-10.873-5.73.073-11.257.13-16.793.219a16.537,16.537,0,0,0-2.543.311,61.765,61.765,0,0,1-18.709.038c-6.317-.891-12.658-1.6-19.416-2.438A86.118,86.118,0,0,0,97.273,511.414Zm-4.124,35.53c1.638.44,2.983.9,4.36,1.16,7.3,1.371,42.037,3.378,51.971,2.009a45.437,45.437,0,0,0,8.739-1.947c6.809-2.382,7.553-2.1,6.4-10.538-.012-.123-.162-.227-.386-.506a13.206,13.206,0,0,0-4.394.764,64.016,64.016,0,0,1-17.753,2.384c-5.984-.075-11.97-.52-17.925-1.151-8.224-.867-16.413-2.043-24.614-3.114-1.808-.234-3.6-.573-5.571-.9A57.154,57.154,0,0,0,93.149,546.944ZM246.194,431.225c-3.494.986-5.089,2.366-6.333,5.381a21.753,21.753,0,0,1-.952,2.371,1.644,1.644,0,0,1-2.828-.093c-.395-.9-.509-1.92-.83-2.858-.847-2.432-1.718-4.873-4.451-6.166a9.584,9.584,0,0,0-1.432,1.574,13.953,13.953,0,0,0-1.721,5.281c-1.042,7.437,2.082,13.716,5.263,20a5.246,5.246,0,0,0,.788,1.014,20.694,20.694,0,0,0,9.551,6.232c2.179.7,3.884.47,5.384-1.413A9.123,9.123,0,0,0,248,461c-.535-.847-1.22-1.6-1.747-2.442a1.906,1.906,0,0,1,.9-2.864c.93-.333,1.954-.383,2.89-.683,1.306-.424,2.91-.133,3.9-1.594-.283-1.288-1.42-1.676-2.417-2.116-1.173-.512-2.461-.758-3.608-1.319a2.743,2.743,0,0,1-1.287-1.54,1.845,1.845,0,0,1,1.144-2.085c.871-.5,1.779-.914,2.657-1.388a7.691,7.691,0,0,0,3.555-3.605c.4-.893.707-1.913-.492-2.8a14.162,14.162,0,0,0-2.356.515c-1.326.514-2.564,1.277-3.905,1.741a2.624,2.624,0,0,1-1.956-.174,1.767,1.767,0,0,1-.511-2.313c.368-.928.9-1.791,1.3-2.718A4.666,4.666,0,0,0,246.194,431.225ZM21.408,397.016c-.317,2.321-.433,2.374.117,3.689.876,2.106,1.892,4.152,2.892,6.205a1.864,1.864,0,0,1-.164,2.361,1.833,1.833,0,0,1-2.339.286,10.55,10.55,0,0,0-2.319-1.073,17.417,17.417,0,0,0-3.768-.538,2.75,2.75,0,0,0-2.512,2.024,2.263,2.263,0,0,0,.772,2.691,15.667,15.667,0,0,0,2.059,1.5,11.434,11.434,0,0,1,1.409.9,1.74,1.74,0,0,1-.7,2.8,22.235,22.235,0,0,0-3.7.7,2.855,2.855,0,0,0-1.326,1.971c-.075.464.65,1.221,1.188,1.594a6.723,6.723,0,0,0,4.943.781c.832-.115,1.626-.51,2.453-.708.86-.2,1.818-.224,2.262.661a3.249,3.249,0,0,1,.15,2,16.36,16.36,0,0,1-.91,1.93c-.326.888-.541,1.822-.831,2.81a5.581,5.581,0,0,0,1.426.456,12.783,12.783,0,0,0,11.733-9.505c.229-.892.44-1.735,1.281-2.071,1.78-.709,2.584-2.21,3.239-3.822,1.329-3.323,2.723-6.635,3.82-10.04a17.9,17.9,0,0,0,.505-5.1,1.832,1.832,0,0,0-2.008-1.781,6.741,6.741,0,0,0-6.57,5.651,24.935,24.935,0,0,0,0,2.571c-.02.933-.334,1.715-1.355,1.888a1.97,1.97,0,0,1-2.088-1.186c-.426-.745-.694-1.574-1.127-2.32A17.305,17.305,0,0,0,21.408,397.016Zm132.857,91.256c-1.621.175-3.173.229-4.677.54a25.9,25.9,0,0,1-8.068.1,58.994,58.994,0,0,0-6.8-.295c-10.541.075-21.089.347-31.394-2.549a8,8,0,0,0-2.118.024c-.449,3.005-1.252,5.734-1.221,8.716a17.371,17.371,0,0,0,6.257,1.6c5.8.65,11.61,1.227,17.4,1.95,3.859.477,7.672.051,11.5-.218,4.254-.3,8.514-.539,12.773-.743,1.845-.092,3.7.053,5.551-.055a10.733,10.733,0,0,0,2.489-.8C155.377,493.7,155.524,490.966,154.265,488.272Zm-.762-4.214a47.833,47.833,0,0,0-2.877-9.1c-15.857,2.868-31.219.71-46.514-3.4-1.579,3.28-1.439,6.569-1.968,9.767,2.431,1.536,4.983,1.847,7.464,2.3,7.313,1.363,14.7,1.4,22.114,1.256,3.97-.076,7.951.184,11.917.42A26.158,26.158,0,0,0,153.5,484.058ZM59.43,393.253a4.057,4.057,0,0,0,.638-.754,4.758,4.758,0,0,0,.34-1.239,94.867,94.867,0,0,1,5.117-21.783c1.365-3.608-.748-7.309-4.442-8.492A4.584,4.584,0,0,0,56,362.238a13.191,13.191,0,0,0-3.017,5.64,28.481,28.481,0,0,0-.924,9.415,27.783,27.783,0,0,0,2.828,11.214C55.909,390.529,57.073,392.523,59.43,393.253ZM194.154,441.89c6.206-.211,11.169-1.632,15.644-4.71a14.143,14.143,0,0,0,4.288-4.74,9.533,9.533,0,0,0,.984-2.37c.735-3.059-.224-5.094-3.128-6.164a16.419,16.419,0,0,0-7.2-1.032c-1.581,3.116-3.039,6.213-4.7,9.2C198.316,435.18,196.39,438.185,194.154,441.89Z" transform="translate(3821.056 3219.726)" fill="#bb4500" fill-rule="evenodd"/>
    <path id="Caminho_217" data-name="Caminho 217" d="M128.837,431.521a17.8,17.8,0,0,1-2.483,2.194c-3.66,2.842-10.27,2.988-13.834,2-4.379-1.2-7.351-3.116-8.3-6.083a16.07,16.07,0,0,1-.377-7.71c.146-.851.82-1.167,2.132-1.09,8.811.516,14.982.613,21.711,1.491S130.376,429.728,128.837,431.521Z" transform="translate(3971.057 4102.443) rotate(-169)" fill="#fff2e1" fill-rule="evenodd"/>
    <path id="Caminho_98" data-name="Caminho 98" d="M104.449,430.938c3.112-1.137,13.23.612,22.76,2.367s7.78,6.3,5.306,10.476c-3.932,6.645-10.013,9.071-17.532,8.011-6.205-.871-12.458-6.591-14.018-13.023C99.971,434.717,101.338,432.075,104.449,430.938Zm-.184,5.591c1.012,5.288,4.183,8.7,8.853,10.841,3.811,1.744,10.854,1.492,14.757-3.573a26.2,26.2,0,0,0,2.65-3.911C132.165,436.7,103.387,431.958,104.265,436.529Z" transform="translate(3992.5 4112.405) rotate(-172)" fill="#bb4500" fill-rule="evenodd"/>
    <path id="Caminho_229" data-name="Caminho 229" d="M193.444,309.642c-22.09,0-44.122-10.328-62.634-29.531-3.8-3.94,35.471,19.492,51.565,20.648a150.063,150.063,0,0,0,28.061-.388c10.336-1.14,1.955.568,14.938-3.739S264.013,282,262.368,283.145a113.679,113.679,0,0,1-63.216,26.278C197.247,309.565,195.349,309.642,193.444,309.642ZM134.813,276.3a85.69,85.69,0,0,0,67.51,25.7c22.166-1.961,39.6-8.784,56.6-23.138,4.1-2.849-14.308,16.482-37.927,23.138-18.123,5.107-39.454-2.516-56.21-1.632C149.413,301.182,129.826,271.131,134.813,276.3Z" transform="translate(3751 3470)" fill="#bb4500"/>
  </g>
</svg>
